<svg xmlns="http://www.w3.org/2000/svg" xmlns:xlink="http://www.w3.org/1999/xlink" x="0px"
	 y="0px" viewBox="0 0 83 63" style="enable-background:new 0 0 83 63;" xml:space="preserve">
<path d="M81.7,37.9c-0.7-1.7-1.8-3.2-3.2-4.4c-1.7-1.4-3.8-2.3-6-2.5c-1.5-0.1-3-0.1-4.4,0.2
	c-0.5,0.1-1,0.1-1.5,0.2l-0.5,0.1l-0.2,0c-0.7,0.1-1.5,0.2-2.2,0.2c-2.9,0.1-5.9-0.1-8.8,0.7c-0.3,0.1-0.5,0.2-0.7,0.4
	c-1.3-0.7-2.6-1.4-3.9-2.2c-1.9-1.1-3.7-2.3-5.5-3.6c-3.2-2.2-6.5-4.5-9.6-6.8c-0.3-0.2-0.5-0.4-0.8-0.6l-0.2-0.1l-0.1-0.1
	c0.5-0.9,0.8-1.9,0.8-2.9c0-1.6-0.5-3.1-1.4-4.4c-1.6-2.5-3.6-4.8-5.8-6.8c-1-1-1.9-2.1-3-3c-0.9-0.8-2-1.4-3.1-1.9
	c-1-0.4-2.1-0.4-3.1-0.2c-1.7,0.4-3.3,0.9-4.8,1.6c-1.6,0.6-3.1,1.4-4.4,2.5C8.6,4.9,8,5.8,7.7,6.7c-1.6,0-3.1,0.4-4.5,1.2
	c-1,0.6-1.8,1.5-2.3,2.5c-0.5,1.1-0.8,2.3-0.9,3.5c0,0.4,0,0.9,0,1.3c0,0.2,0,0.4,0,0.6c0,0.2,0.1,0.5,0.1,0.7c0,0.1,0,0.1,0,0.2
	c0,0.2,0,0.1,0-0.2C0,17.5,0,18.6,0,19.6c0,1.2,0.2,2.3,0.5,3.5c0.2,0.6,0.4,1.2,0.7,1.8c0.3,0.6,0.7,1.1,1.3,1.5
	c1.7,1.5,3.9,2,6.1,2.6c1.4,1.7,3.2,2.9,5.4,3.4c2.5,0.5,5,0.8,7.5,0.7c0.1,0,0.2,0.1,0.3,0.1c0.2,0.1,0.5,0.1,0.7,0.1
	c1.5,1.1,3,2.2,4.5,3.3c2.5,1.8,5,3.6,7.5,5.3c1.8,1.3,3.7,2.6,5.6,3.8c0.6,0.4,1.3,0.8,2,1.2c0.7,0.4,1.3,0.8,1.9,1.2
	c0.1,0.1,0.2,0.1,0.2,0.2c0.2,0.1,0.3,0.3,0.4,0.4l0,0l0,0c-0.1,0.3-0.1,0.7-0.1,1c0,1.1,0.2,2.1,0.7,3.1c0.9,1.7,2.1,3.2,3.6,4.4
	c1.5,1.6,3.1,3,4.9,4.3c1.8,1.2,4.3,2,6.4,1.3c0.9-0.3,1.7-0.8,2.4-1.5c0.3,0.3,0.7,0.5,1.1,0.8c0.8,0.5,1.8,0.7,2.7,0.5
	c0.4-0.1,0.8-0.3,1.1-0.5c1.9-0.3,3.7-1.1,5.2-2.3c0.7-0.5,1.5-0.9,2.2-1.4c0.9-0.7,1.8-1.4,2.6-2.2c0.7-0.7,1.4-1.5,2.1-2.3
	c0.8-0.8,1.5-1.8,2.2-2.8c1.1-2.2,1.6-4.7,1.4-7.2C82.9,41.8,82.5,39.8,81.7,37.9 M4.7,22.8C4.7,22.7,4.6,22.6,4.7,22.8 M5.3,23.4
	C5.2,23.3,5.1,23.2,5.3,23.4 M6.8,24.2L6.8,24.2c-0.1,0-0.4-0.1-0.5-0.2c-0.1-0.1-0.3-0.1-0.4-0.2c-0.2-0.1-0.4-0.2-0.6-0.4l0,0
	c-0.1-0.1-0.2-0.2-0.3-0.3S4.9,23,4.8,22.9l0,0c0-0.1-0.1-0.2-0.1-0.2l0,0c-0.2-0.5-0.3-1-0.4-1.6c0-0.1,0-0.2-0.1-0.4v0
	c0-0.2,0-0.5-0.1-0.7c0-0.5,0-1.1,0-1.6c0-0.5,0-1,0.1-1.5c0-0.4,0-0.7,0-1.1c0,0,0,0,0,0c0-0.1,0-0.1,0-0.2c0-0.4,0-0.9,0-1.3
	c0-0.2,0-0.4,0.1-0.6c0-0.1,0-0.3,0.1-0.4c0-0.2,0.1-0.4,0.2-0.6c0-0.1,0.1-0.2,0.1-0.2c0.1-0.1,0.2-0.3,0.2-0.4
	c0.1-0.1,0.2-0.2,0.2-0.2s0.2-0.1,0.2-0.2c0.2-0.1,0.3-0.2,0.5-0.3l0.1,0c0.1,0,0.1,0,0.2-0.1c0.2-0.1,0.5-0.1,0.7-0.2
	c0.1,0,0.2,0,0.3-0.1h0c-0.1,1.2-0.1,2.4-0.1,3.7C6.7,17.7,6.4,21,6.8,24.2 M74.2,35.5C74,35.4,74.1,35.4,74.2,35.5 M57.5,35.9
	L57.5,35.9 M30.9,16.6C30.9,16.2,30.9,16.4,30.9,16.6 M30.6,15.2C30.7,15.3,30.7,15.4,30.6,15.2 M20.1,4C20.2,4.1,20.2,4.1,20.1,4
	 M12.1,7.1L12.1,7.1C11.8,7.4,12,7.2,12.1,7.1 M11.9,7.3C11.9,7.3,12,7.2,11.9,7.3 M11.5,7.9C11.6,7.7,11.7,7.6,11.5,7.9 M12.6,27.3
	L12.6,27.3C12.9,27.6,12.7,27.4,12.6,27.3 M13.7,28C13.6,27.9,13.4,27.9,13.7,28 M22.4,20.6c-0.3,0.8-0.5,1.7-0.7,2.6
	c-0.2,1-0.4,2.1-0.5,3.2c0,0.2,0,0.4-0.1,0.6c0,0.1,0,0.4,0,0.5c-0.1,0.3-0.1,0.5-0.2,0.8s-0.2,0.5-0.2,0.8c-1.3,0-2.6,0-3.9-0.2
	c-0.1,0-0.2,0-0.3,0c-0.1,0-0.3,0-0.4-0.1c-0.4-0.1-0.8-0.2-1.2-0.3c-0.4-0.1-0.7-0.2-1-0.3l-0.1,0c-0.2-0.1-0.4-0.2-0.6-0.3
	c-0.2-0.1-0.3-0.2-0.5-0.3c0,0-0.1-0.1-0.1-0.1c-0.3-0.2-0.5-0.5-0.7-0.7c0-0.1-0.1-0.1-0.1-0.2c-0.1-0.2-0.2-0.3-0.3-0.5
	c0-0.1-0.1-0.1-0.1-0.2c-0.1-0.2-0.1-0.4-0.2-0.7c-0.1-0.5-0.2-1-0.3-1.5l0,0c0-0.1,0-0.3,0-0.4c0-0.3-0.1-0.6-0.1-1
	c-0.1-1.2,0-2.3,0-3.5c0.1-1.8,0.1-3.5,0.1-5.3c0-0.9,0.1-1.8,0.1-2.7c0-0.2,0-0.4,0.1-0.6c0-0.1,0-0.2,0-0.2
	c0.1-0.4,0.2-0.8,0.3-1.3c0-0.2,0.1-0.3,0.2-0.5c0,0,0-0.1,0-0.1c0.1-0.1,0.1-0.3,0.2-0.4l0.1-0.1c0.1-0.1,0.2-0.2,0.3-0.3l0,0
	c0.3-0.2,0.6-0.4,0.9-0.6c0.7-0.4,1.5-0.8,2.3-1.1c0.1,0,0.2-0.1,0.4-0.2c0.1-0.1,0.3-0.1,0.4-0.2C16.6,5,17,4.8,17.4,4.7
	c0.7-0.2,1.4-0.4,2.1-0.6c0.1,0,0.2,0,0.3-0.1c0.1,0,0.1,0,0.2,0h0l0.1,0c0.1,0,0.2,0.1,0.3,0.1l0.1,0c0.4,0.2,0.7,0.4,1.1,0.6
	c0.1,0.1,0.2,0.1,0.3,0.2l0,0c0.2,0.2,0.4,0.3,0.6,0.5C22.9,6,23.5,6.6,24,7.2c0.8,0.9,1.7,1.8,2.6,2.6c0.5,0.5,1,1.1,1.5,1.6
	c0.2,0.3,0.5,0.5,0.7,0.8c0.1,0.1,0.2,0.3,0.3,0.4l0.1,0.1v0c0.4,0.6,0.8,1.2,1.2,1.9c0.1,0.1,0.1,0.3,0.2,0.4c0,0,0,0.1,0,0.1
	c0.1,0.3,0.2,0.6,0.2,0.9c0,0,0,0,0,0.1c0,0.2,0,0.3,0,0.5c0,0,0,0,0,0c-0.2-0.1-0.5-0.2-0.7-0.3c-1-0.3-2.2-0.3-3.2,0
	c-1,0.3-2,0.9-2.7,1.7C23.4,18.7,22.8,19.6,22.4,20.6 M46.7,45c-1.5-1.1-3-2.1-4.6-3c-2.1-1.4-4.2-2.9-6.3-4.3
	c-3.7-2.6-7.5-5.2-11.1-7.9c0.3-0.8,0.5-1.6,0.6-2.4c0-0.4,0.1-0.8,0.1-1.2c0-0.2,0-0.4,0.1-0.6c0-0.1,0-0.2,0.1-0.4
	c0.1-0.8,0.3-1.6,0.5-2.4c0.1-0.3,0.1-0.5,0.2-0.8c0-0.1,0.1-0.3,0.2-0.3c0.1-0.1,0.1-0.2,0.2-0.3c0-0.1,0.2-0.2,0.2-0.3
	c0.1-0.1,0.2-0.2,0.4-0.4c0.1-0.1,0.1-0.1,0.2-0.2c-0.1,0.1,0.3-0.2,0.4-0.3c0.1,0,0.1-0.1,0.2-0.1c0.1,0,0.2,0,0.3-0.1
	c0,0,0.3,0,0.4,0c0.1,0,0.1,0,0.2,0c0.2,0,0.3,0.1,0.4,0.1l0,0c0.1,0.1,0.2,0.2,0.3,0.4c1.2,1.1,2.5,2.2,3.9,3.2
	c1.6,1.2,3.2,2.4,4.8,3.5c3.4,2.4,6.7,4.8,10.3,6.9c1.6,1,3.3,1.8,5,2.7c0,0.1,0.1,0.2,0.1,0.2c0.2,0.6,0.4,1.1,0.6,1.7
	c-1.4,0.8-2.7,1.8-3.9,2.8C49,42.7,47.8,43.8,46.7,45 M58.9,59L58.9,59 M59.5,58.6L59.5,58.6C59.8,58.4,59.6,58.6,59.5,58.6
	 M61,56.7c-0.2,0.2-0.3,0.4-0.4,0.6c-0.1,0.1-0.2,0.3-0.3,0.4c0,0-0.1,0.1-0.2,0.2c-0.2,0.2-0.4,0.5-0.6,0.7c0,0,0,0-0.1,0.1
	c-0.1,0.1-0.3,0.2-0.4,0.2l-0.1,0c-0.1,0-0.3,0.1-0.4,0.1c-0.1,0-0.2,0-0.3,0c0,0-0.1,0-0.1,0c-0.1,0-0.1,0-0.2,0
	c-0.2-0.1-0.5-0.1-0.7-0.2c-0.1,0-0.2-0.1-0.3-0.1l-0.1-0.1c-0.5-0.2-0.9-0.5-1.3-0.8c-0.1-0.1-0.2-0.2-0.3-0.2l-0.1-0.1
	c-0.2-0.2-0.4-0.3-0.6-0.5c-0.8-0.7-1.6-1.5-2.3-2.3c-0.7-0.7-1.3-1.3-2-2c-0.2-0.2-0.4-0.5-0.7-0.8l-0.1-0.1
	c-0.1-0.1-0.2-0.3-0.3-0.4s-0.2-0.3-0.2-0.4c0-0.1-0.1-0.2-0.1-0.2c-0.1-0.2-0.1-0.3-0.1-0.5c0-0.1,0-0.2,0-0.3s0-0.2,0-0.3
	s0-0.2,0.1-0.2s0.1-0.2,0.1-0.3c0.1-0.3,0.3-0.5,0.5-0.8l0.2-0.2c0.2-0.2,0.3-0.4,0.5-0.6c1.1-1.3,2.3-2.4,3.7-3.4l0.2-0.1
	c0.2-0.1,0.3-0.2,0.5-0.3c0.4-0.3,0.7-0.5,1.1-0.8c0.3-0.2,0.7-0.4,1-0.6c0.5,0.8,0.9,1.7,1.3,2.5c0.5,1,1.1,2,1.7,3s1.2,2,1.7,3
	c0.5,0.9,0.9,1.9,1.3,2.8c0.1,0.2,0.2,0.4,0.3,0.6C62.1,55,61.5,55.9,61,56.7 M72.8,54.9C73.1,54.7,72.9,54.8,72.8,54.9 M78.9,46.2
	c0,0.1,0,0.3,0,0.4c0,0,0,0,0,0c0,0.3-0.1,0.6-0.2,0.9c-0.1,0.3-0.1,0.5-0.2,0.8c0,0.1-0.1,0.3-0.1,0.4l0,0
	c-0.1,0.2-0.2,0.5-0.4,0.7c-0.1,0.1-0.1,0.2-0.2,0.3c0,0.1-0.2,0.2-0.2,0.3c-0.6,0.7-1.2,1.4-1.8,2.1c-0.7,0.8-1.4,1.5-2.2,2.2
	c-0.2,0.2-0.4,0.3-0.6,0.5c-0.1,0.1-0.1,0.1-0.2,0.2l0,0c-0.4,0.3-0.8,0.5-1.2,0.7c-0.7,0.4-1.4,0.9-2.2,1.4
	c-0.4,0.2-0.7,0.4-1.1,0.6c0-0.1-0.1-0.3-0.1-0.4c-0.3-1.1-0.7-2.3-1.2-3.3c-0.4-1-0.9-1.9-1.4-2.9s-0.9-1.9-1.4-2.9
	c-0.6-1.2-1.4-2.4-2-3.6c-0.3-0.6-0.7-1.2-1-1.8s-0.6-1.3-0.9-1.9c-0.4-0.7-0.8-1.3-1.3-1.9c-0.2-0.2-0.4-0.5-0.6-0.7l-0.1-0.2
	c-0.1-0.1-0.2-0.3-0.2-0.4c-0.1-0.1-0.1-0.2-0.2-0.4l0-0.1l0-0.1c-0.1-0.3-0.2-0.7-0.3-1c0-0.1-0.1-0.2-0.1-0.3l0.2,0
	c0.3,0,0.6-0.1,0.9-0.1c1.1-0.1,2.2-0.1,3.2-0.1s2.1,0,3.2-0.1c0.7-0.1,1.3-0.2,2-0.2l0.8-0.1l0.4-0.1l0.1,0l0.1,0
	c1.1-0.2,2.2-0.2,3.4-0.2c0.3,0,0.5,0,0.8,0.1c0.1,0,0.2,0,0.3,0c0.5,0.1,0.9,0.2,1.4,0.4c0.1,0,0.1,0,0.2,0.1l0,0
	c0.2,0.1,0.4,0.2,0.5,0.3s0.3,0.2,0.5,0.3c0.1,0.1,0.2,0.1,0.2,0.2l0,0c0.3,0.2,0.6,0.5,0.8,0.8c0.1,0.1,0.3,0.3,0.4,0.5l0,0
	c0,0.1,0.1,0.2,0.1,0.2c0.2,0.3,0.4,0.7,0.6,1c0.1,0.2,0.2,0.4,0.3,0.6c0,0.1,0.1,0.2,0.1,0.3v0c0.3,0.8,0.6,1.7,0.7,2.5
	c0,0.2,0.1,0.4,0.1,0.6c0,0.1,0,0.2,0,0.2c0.1,0.5,0.1,1,0.1,1.5C79,45.1,79,45.7,78.9,46.2"/>
</svg>
