<svg xmlns="http://www.w3.org/2000/svg" xmlns:xlink="http://www.w3.org/1999/xlink" x="0px" y="0px"
	 viewBox="0 0 103.9 110.3" style="enable-background:new 0 0 103.9 110.3;" xml:space="preserve">
<path d="M34,61.5c-1.7-0.1-3.5,0.1-5.1,0.7c-0.9,0.3-1.7,0.7-2.4,1.3c-0.8-0.3-1.7-0.5-2.6-0.5
	C22,63,20.2,63.7,18.7,65c-0.8,0.6-1.4,1.3-2.1,2c-0.7,0.8-1.3,1.5-2,2.3c-0.8,0.8-1.4,1.7-2,2.7c-0.6,0.9-1.1,1.9-1.6,2.8
	C10.1,76.4,9,78,9,80c0,1.1,0.4,2.1,1.1,2.9l0,0c-0.4,1.5-0.6,3-0.6,4.5c-0.1,1.8,0.1,3.6,0.7,5.2c0.7,1.9,1.8,3.7,3.1,5.2
	c1.5,1.5,3.1,2.9,4.9,4.1c0,0,0,0,0.1,0.1c0.2,0.1,0.4,0.3,0.5,0.4c0.2,0.1,0.4,0.3,0.6,0.4c0.2,0.1,0.4,0.3,0.6,0.4
	c0.1,0.1,0.2,0.1,0.3,0.2c0,0,0.1,0.1,0.1,0.1c0.5,0.4,1,0.8,1.5,1.1c0.1,0.1,0.3,0.2,0.5,0.3c0.1,0,0.1,0,0.2,0.1
	c0.2,0.1,0.5,0.2,0.7,0.4c1.9,1,3.8,1.7,5.8,2.2c2,0.4,4.1,0.2,6.1-0.5c0.4-0.1,0.9-0.3,1.3-0.6c0.4-0.2,0.7-0.5,1-0.8
	c0.2-0.3,0.5-0.5,0.7-0.8c0.1-0.1,0.2-0.2,0.3-0.4c0.1-0.1,0.1-0.1,0.2-0.1l0,0c1.2-0.1,2.4-0.3,3.5-0.7c1.4-0.6,2.7-1.4,3.9-2.4
	c1.1-0.9,2-1.9,2.9-3.1c0.6-0.8,1.2-1.7,1.8-2.5c0.4-0.7,0.8-1.5,1.1-2.2c0.7-1.6,1.4-3.2,2-4.8c0.2-0.6,0.4-1.2,0.6-1.8
	c0.1-0.2,0.1-0.4,0.2-0.6c0-0.2,0.1-0.4,0.1-0.6l0,0c0-0.1,0-0.3,0.1-0.4c0.2-0.9,0.2-1.8,0.2-2.7c0-0.5-0.1-1-0.2-1.4
	c-0.1-0.5-0.3-1-0.6-1.5C54,78.8,53.5,78,53,77.2l-0.1-0.2c0,0,0-0.1,0-0.1c0-0.1,0-0.2,0-0.3c0-0.2,0-0.4,0.1-0.5
	c0-0.6,0-1.2-0.2-1.8c-0.2-0.8-0.5-1.7-0.8-2.4c-0.3-0.7-0.8-1.3-1.2-1.8c-0.4-0.5-0.8-0.9-1.2-1.3c0.3-0.1,0.5-0.2,0.8-0.3
	c1-0.7,1.8-1.5,2.5-2.5c0.8-1,1.5-2,2.3-3.1c0.1-0.2,0.2-0.3,0.3-0.5c0-0.1,0.1-0.1,0.1-0.2c0.6-0.6,1.1-1.2,1.5-2
	c0.3-0.6,0.4-1.2,0.4-1.8l0.1-0.1c0,0,0.1-0.1,0.1-0.1c0.1-0.1,0.2-0.1,0.2-0.2c0.3-0.2,0.5-0.4,0.8-0.5c0.9-0.6,1.9-1.1,2.9-1.7
	c0.8-0.5,1.5-1.1,2.3-1.7c0.9-0.7,1.9-1.4,2.8-2.1c1.7-1.3,3.3-2.6,5-3.8s3.3-2.6,4.8-4c1.2-1.1,2.3-2.3,3.3-3.4
	c2.1-2.3,4-4.8,5.9-7.3c1.8-2.5,3.3-5.1,4.7-7.8c1.3-2.6,2.3-5.4,2.8-8.2c0.5-2.6,0.4-5.4-0.4-8c-1-3-3.2-5.5-6-6.8
	c-2.9-1.3-6.1-1.4-9.1-0.3c-1.8,0.8-3.4,1.8-4.9,3.1c-1.6,1.4-2.9,2.9-4.2,4.6c-2.3,3.2-4.2,6.8-5.6,10.5c-1.4,3.3-2.5,6.8-3.5,10.3
	c-0.6,1.9-1.2,3.9-1.9,5.8c-0.3,1-0.7,2-1.1,3c-0.2,0.5-0.4,0.9-0.5,1.4c-0.1,0.2-0.2,0.5-0.3,0.7l-0.1,0.3l0,0L55.3,42
	c-1.5,3.5-3.2,7-5.1,10.3c-0.1,0-0.3,0-0.4,0c-0.7,0.1-1.3,0.6-1.6,1.3c-0.3,0.4-0.5,0.8-0.8,1.1c-0.1,0.2-0.3,0.4-0.4,0.5l0,0
	l-0.3,0.3c-0.2,0.3-0.5,0.6-0.7,0.9c-0.1,0.1-0.2,0.2-0.3,0.3c0.1-0.1-0.4,0.5-0.3,0.4l-0.2,0.2c-0.6,0.8-1.3,1.6-1.9,2.4
	c-0.4,0.5-0.7,0.9-1,1.4c-0.2,0.3-0.3,0.6-0.5,1c-0.3,0.3-0.6,0.6-0.8,0.9c-0.2-0.1-0.4-0.2-0.7-0.2c-0.6-0.2-1.2-0.4-1.8-0.6
	C37,61.9,35.5,61.6,34,61.5 M30.3,65c0.4-0.1,0.8-0.2,1.2-0.3c0.1,0,0.2,0,0.3-0.1l0.1,0c0.3,0,0.5-0.1,0.8-0.1c0.5,0,0.9,0,1.4,0
	c0.1,0,0.2,0,0.3,0l0.1,0c0.1,0,0.1,0,0.2,0c-0.9,0.5-1.7,1.1-2.4,1.8c-0.8-0.4-1.5-0.9-2.3-1.3C30.1,65.1,30.2,65.1,30.3,65
	 M35.3,72.1L35.3,72.1c0-0.1-0.1-0.1-0.1-0.2C35.2,72,35.3,72.1,35.3,72.1 M26,66.6C25.6,66.5,25.8,66.6,26,66.6 M24.3,66.1
	C23.9,66.1,24.1,66.1,24.3,66.1 M23.3,66.1C23,66.2,23.2,66.1,23.3,66.1 M20.2,67.9c0.2-0.2,0.3-0.3,0.5-0.5c0.1,0,0.1-0.1,0.2-0.1
	l0.1-0.1c0.4-0.3,0.8-0.5,1.2-0.7c0.1,0,0.3-0.1,0.4-0.2c0.1,0,0.2-0.1,0.3-0.1c0.1,0,0.3-0.1,0.4-0.1c0.1,0,0.2,0,0.3,0
	c0.2,0,0.3,0,0.5,0c0.1,0,0.1,0,0.2,0c0.4,0.1,0.7,0.1,1,0.3c0.2,0,0.3,0.1,0.5,0.2l0.2,0.1c0.3,0.1,0.7,0.3,1,0.5
	c1.6,0.8,3.1,1.7,4.6,2.6c0.5,0.3,0.9,0.5,1.3,0.8c0.2,0.1,0.4,0.3,0.6,0.4c0.1,0.1,0.2,0.2,0.3,0.2l0.1,0l0,0
	c0.4,0.3,0.9,0.6,1.4,0.9c0,0,0,0,0.1,0l0,0l0,0l0,0l0,0l0,0l0,0c0.1,0.1,0.1,0.1,0,0c0.1,0.1,0.2,0.2,0.3,0.3c0,0,0,0,0,0l0,0l0,0
	c0,0,0,0,0,0c0,0.1,0.1,0.2,0.1,0.2c0,0,0,0.1,0,0.1c0,0,0,0.1,0,0.1c0,0.1,0,0.2,0.1,0.2l0,0.1c0.2,0.4,0.2,0.5,0.1,0.2
	c-0.2-0.4,0,0,0,0c0,0,0,0,0,0l0,0c0,0,0,0.1,0,0.1c0,0.1,0,0.1,0,0.2c0,0.2,0,0.4,0.1,0.6c0,0.1,0.1,0.4,0,0.3c0,0.4,0.1,0.7,0,1.1
	c0,0.1,0,0.2,0,0.3l0,0c0,0.2-0.1,0.5-0.2,0.7c0,0.1-0.1,0.3-0.2,0.4c-2.5-2.2-5.3-4-8.3-5.5c-0.8-0.4-1.7-0.8-2.6-1.2
	c-0.8-0.5-1.6-0.9-2.4-1.3c-0.9-0.4-1.8-0.8-2.8-1l-0.1,0C19.9,68.1,20,68,20.2,67.9 M39.3,73.9C39.3,73.9,39.3,73.9,39.3,73.9
	c0-0.2,0-0.3,0-0.4c0-0.2-0.1-0.5-0.1-0.7c0-0.1,0-0.2-0.1-0.3c0,0,0-0.1-0.1-0.2c0-0.2-0.1-0.4-0.2-0.6c0.1-0.1,0.3-0.2,0.4-0.2
	l0,0c0.1,0,0.2-0.1,0.2-0.1c0,0,0.1,0,0.1,0c0,0,0.1,0,0.1,0c0.2,0,0.3,0,0.5,0c0,0,0.2,0,0.2,0c0.1,0,0.2,0.1,0.3,0.1
	c0.2,0.1,0.4,0.1,0.6,0.2l0.1,0c0.1,0,0.2,0.1,0.2,0.1c0.1,0,0.2,0.1,0.3,0.1c0,0.1,0.1,0.1,0.1,0.2c-0.3-0.4,0,0,0.1,0.2
	c0.1,0.1,0.2,0.3,0.2,0.5l0,0c0,0.1,0,0.1,0.1,0.2c0.1,0.2,0.1,0.4,0.2,0.6c0,0.2,0.1,0.4,0.1,0.5c0,0.1,0,0.1,0,0.2
	c0,0,0,0.1,0,0.1c0,0.4,0.1,0.8,0.1,1.2c0,0.4,0,0.7,0,1.1c0,0.2,0,0.4-0.1,0.5c0,0.1,0,0.2,0,0.3c-0.1,0.8-0.3,1.6-0.5,2.3
	c-0.2,0.5-0.3,0.9-0.5,1.4l0,0l0,0c0,0.1-0.1,0.2-0.1,0.3c-0.1,0.3-0.2,0.5-0.4,0.8c-0.5,1-1,1.9-1.5,2.8c-0.5,0.9-1,1.8-1.5,2.6
	c-0.2,0.4-0.5,0.8-0.8,1.2c-0.1,0.2-0.3,0.4-0.4,0.6l-0.1,0.1c0,0-0.2,0.2-0.2,0.3c-0.8,1-1.7,2-2.7,2.9c-0.2,0.2-0.5,0.4-0.7,0.6
	c0,0-0.2,0.2-0.3,0.2c-0.1,0.1-0.2,0.2-0.3,0.2c-0.5,0.3-1.1,0.6-1.6,0.9c-0.1,0-0.1,0.1-0.2,0.1s-0.2,0.1-0.2,0.1
	c-0.3,0.1-0.6,0.2-0.9,0.3c-0.2,0-0.4,0.1-0.6,0.2l0,0c-0.1,0-0.3,0-0.4,0c-0.3,0-0.5,0-0.8,0c-0.1,0-0.2,0-0.4,0l-0.2,0
	c-0.3,0-0.5-0.1-0.7-0.2c0-0.1,0-0.1,0-0.1c0-0.2-0.1-0.3-0.1-0.5c0,0,0-0.1,0-0.1c0-0.1,0-0.2,0-0.3c0-0.1,0-0.2,0-0.3
	c0,0,0-0.1,0-0.1c0-0.2,0.1-0.3,0.1-0.5c0,0,0-0.1,0-0.1s0-0.1,0.1-0.1c0-0.1,0.1-0.2,0.1-0.2l0.2,0c0.6-0.1,1.1-0.4,1.6-0.8
	c1-0.8,2-1.6,3-2.5c0.7-0.6,1.3-1.3,1.8-2c0.7-0.9,1.4-1.7,2-2.6c1.2-1.7,2.3-3.6,3.1-5.5c0.5-1.1,0.9-2.2,1-3.4c0-0.4,0-0.8,0-1.2
	C39.4,74.5,39.3,74.2,39.3,73.9 M41.4,71.8l0.1,0.1L41.4,71.8 M42.4,73C42.4,73,42.4,73,42.4,73 M26.3,94.8
	C26.3,94.8,26.3,94.8,26.3,94.8 M15.4,73.4c0.1-0.2,0.3-0.4,0.4-0.6c0.1-0.1,0.1-0.2,0.2-0.3l0.1-0.1l0.1-0.1
	c0.4-0.5,0.8-0.9,1.2-1.4c0.5,0.1,1,0.2,1.5,0.3c0.4,0.1,0.8,0.2,1.2,0.3c0.1,0,0.2,0.1,0.3,0.1l0,0l0,0c0.2,0.1,0.4,0.2,0.7,0.3
	c0.8,0.4,1.6,0.8,2.3,1.2c0.8,0.5,1.7,0.8,2.5,1.2c1.7,0.8,3.3,1.8,4.8,2.8c0.4,0.3,0.8,0.5,1.1,0.8c0.2,0.1,0.4,0.3,0.6,0.4
	l0.2,0.1l0.2,0.2c0.6,0.5,1.1,0.9,1.7,1.4c-0.4,0.7-0.8,1.4-1.2,2.1c-0.3,0.4-0.5,0.8-0.8,1.2c-0.1,0.1-0.2,0.2-0.3,0.4
	c-0.5-0.4-0.9-0.8-1.4-1.1c-0.8-0.6-1.5-1.1-2.3-1.7L28,80.7c0.4,0.3-0.1-0.1-0.3-0.2c-0.1-0.1-0.2-0.1-0.3-0.2
	c-0.4-0.2-0.7-0.5-1.1-0.7c-0.8-0.5-1.7-0.9-2.5-1.3c-1.6-0.9-3.3-1.8-5-2.6c-1.2-0.6-2.5-1.2-3.7-1.7
	C15.2,73.8,15.3,73.6,15.4,73.4 M13.2,87.7c-0.2,0.6-0.3,1.3-0.4,2c0,0,0,0,0,0c-0.1-0.8-0.1-1.6,0-2.3c0-0.8,0.1-1.5,0.2-2.3
	c0,0,0-0.2,0-0.2c0,0,0-0.1,0-0.1l0,0c0.4,0.2,0.8,0.4,1.2,0.5C13.8,86,13.4,86.8,13.2,87.7 M13,81.2c-0.1,0-0.1-0.1-0.1-0.1
	c0,0-0.2-0.1-0.2-0.2c-0.1-0.1-0.2-0.2-0.3-0.3l0,0l0,0c0-0.1-0.1-0.1-0.1-0.2c0-0.1-0.1-0.3-0.1-0.4c0-0.1,0-0.2,0-0.3
	c0,0,0-0.1,0-0.1c0-0.1,0-0.2,0-0.2c0-0.2,0.1-0.3,0.1-0.5c0-0.1,0.1-0.2,0.1-0.2c0.2-0.4,0.4-0.8,0.6-1.2l0.5-0.9
	c0.1,0,0.2,0.1,0.3,0.1c0.1,0.1,0.3,0.1,0.4,0.2l0.2,0.1c0.1,0,0.2,0.1,0.3,0.2c0.8,0.4,1.7,0.8,2.5,1.2c1.6,0.8,3.3,1.7,4.9,2.6
	c0.8,0.4,1.6,0.8,2.4,1.3c0.4,0.2,0.8,0.4,1.1,0.7c0.1,0.1,0.2,0.2,0.3,0.2l0.4,0.3l0.3,0.2c0.7,0.6,1.5,1.1,2.2,1.7
	c0.2,0.1,0.3,0.2,0.5,0.4l0,0l0,0c0.1,0.1,0.2,0.2,0.3,0.2c0.2,0.1,0.3,0.3,0.5,0.4c-0.2,0.2-0.3,0.4-0.5,0.5
	c-0.9,0.8-1.8,1.6-2.7,2.4l0,0c0,0-0.1,0-0.1,0c-0.1,0-0.2-0.1-0.3-0.1c0,0-0.1,0-0.1,0c-0.2-0.1-0.3-0.1-0.5-0.2
	c-0.4-0.2-0.8-0.5-1.2-0.7c-0.8-0.5-1.6-1-2.4-1.5c-0.9-0.6-1.7-1.3-2.6-1.9c-0.9-0.6-1.7-1.1-2.7-1.6c-0.9-0.5-1.8-0.9-2.8-1.3
	C13.9,81.7,13.4,81.5,13,81.2 M15.9,89.8C15.9,90.1,15.9,90,15.9,89.8 M18.4,89.2c-0.4,1-0.7,2-0.9,3c-0.2,1-0.3,1.9-0.3,2.9
	c0,0.5,0.1,1.1,0.1,1.6c0,0.3,0.1,0.6,0.2,0.9c-0.1-0.1-0.3-0.2-0.4-0.3c0,0-0.1-0.1-0.1-0.1c-0.1-0.2-0.2-0.4-0.3-0.7
	c0,0-0.1-0.2-0.1-0.3c0-0.1-0.1-0.2-0.1-0.3c-0.2-0.6-0.4-1.1-0.6-1.7c0-0.1,0-0.2-0.1-0.3c0,0,0-0.1,0-0.1c0,0,0,0,0-0.1
	c0-0.3-0.1-0.6-0.1-0.9c0-0.6,0-1.2,0-1.9c0-0.3,0-0.5,0.1-0.8c0-0.1,0-0.2,0-0.3l0,0c0.1-0.4,0.2-0.8,0.3-1.2
	c0.1-0.2,0.2-0.5,0.2-0.7c0,0,0.1-0.1,0.1-0.2c0-0.1,0.1-0.2,0.1-0.3c0.1-0.2,0.2-0.4,0.3-0.6c0.7,0.4,1.4,0.9,2,1.4
	C18.8,88.4,18.6,88.8,18.4,89.2 M33,104.5c-0.1,0-0.2,0-0.3,0.1l-0.1,0c-0.2,0-0.5,0-0.7,0.1c-0.4,0-0.9,0-1.3,0l-0.1,0
	c-0.1,0-0.2,0-0.3,0c-0.3,0-0.5-0.1-0.8-0.2c-0.5-0.1-0.9-0.3-1.4-0.4c-0.2-0.1-0.3-0.1-0.5-0.2l-0.2-0.1c-0.1-0.1-0.3-0.1-0.4-0.2
	c-0.9-0.4-1.9-0.8-2.7-1.3c-0.1-0.1-0.2-0.1-0.3-0.2c-0.2-0.2-0.4-0.3-0.5-0.5c-0.2-0.2-0.4-0.4-0.6-0.6c-0.1-0.1-0.2-0.2-0.3-0.3
	l-0.1-0.2c-0.3-0.4-0.6-0.9-0.9-1.4c0-0.1-0.1-0.1-0.1-0.2c0-0.1-0.1-0.1-0.1-0.2c-0.1-0.4-0.2-0.8-0.3-1.2
	c-0.1-0.4-0.3-0.7-0.3-1.1c0,0,0-0.1,0-0.1c0,0,0-0.2,0-0.2c0-0.2,0-0.5,0-0.7c0-0.4,0-0.8,0-1.1c0-0.2,0-0.3,0.1-0.5
	c0-0.1,0-0.2,0-0.2c0-0.1,0-0.2,0.1-0.4c0.1-0.4,0.1-0.8,0.2-1.2c0-0.2,0.1-0.4,0.2-0.6c0-0.1,0.1-0.2,0.1-0.4l0,0l0,0
	c0.1-0.3,0.3-0.6,0.4-0.8c0.4,0.2,0.8,0.5,1.1,0.7c0.4,0.2,0.8,0.5,1.2,0.7c-1,1.8-1,3.9-0.1,5.7c1,1.8,2.4,3.4,4.2,4.5
	c1.7,1,3.5,1.8,5.4,2.4c0.3,0.1,0.6,0.2,0.9,0.3C33.8,104.3,33.4,104.4,33,104.5 M32.4,99.9C32.5,99.9,32.5,99.9,32.4,99.9 M36,98.6
	c-0.3,0.1-0.6,0.3-0.9,0.4c-0.2,0.1-0.3,0.1-0.5,0.2l-0.2,0.1c-0.5,0.2-1,0.4-1.5,0.5c-0.2,0.1-0.4,0.1-0.6,0.1c0,0-0.1,0-0.1,0l0,0
	c-0.1,0-0.2,0-0.3,0c0,0,0,0-0.1,0c-0.1,0-0.3-0.1-0.4-0.1c-0.8-0.4-1.6-0.8-2.3-1.3l0,0c0.2,0,0.4,0,0.5-0.1
	c1.7-0.3,3.4-1.1,4.8-2.1c1.6-1.2,3.1-2.6,4.3-4.2c1.3-1.7,2.4-3.4,3.4-5.3c1.7-2.7,2.8-5.7,3.4-8.8c0.2-1.1,0.2-2.3,0.2-3.4
	c0.5,0.4,1,0.7,1.5,1c0,0.1,0.1,0.1,0.1,0.2c0,0.1,0.1,0.1,0.1,0.2c0,0,0.1,0.3,0.1,0.4c0.1,0.2,0.1,0.4,0.1,0.6
	c0,0.1,0,0.3,0.1,0.4c0,0.1,0,0.2,0,0.3c0,0.4,0,0.8,0,1.1c0,0.4,0,0.7-0.1,1.1l0,0c0,0.1,0,0.1,0,0.2c0,0.2-0.1,0.4-0.1,0.6
	c-0.1,0.7-0.3,1.3-0.4,2c-0.1,0.5-0.3,0.9-0.4,1.4c-0.1,0.2-0.2,0.5-0.3,0.7c0,0.1-0.1,0.1-0.1,0.2c0,0-0.1,0.3-0.1,0.3
	c-0.4,1-0.9,1.9-1.4,2.8c-0.9,1.7-1.9,3.4-3,5.1c-0.2,0.3-0.4,0.6-0.6,0.8l-0.1,0.2l0,0c-0.1,0.1-0.2,0.3-0.3,0.4
	c-0.5,0.6-1,1.1-1.5,1.6c-0.2,0.2-0.5,0.4-0.7,0.6l0,0l-0.1,0.1c-0.1,0.1-0.3,0.2-0.4,0.3C37.4,97.9,36.7,98.2,36,98.6 M47.4,75.8
	L47.4,75.8L47.4,75.8L47.4,75.8 M47.9,80.1C47.9,80.2,47.9,80.3,47.9,80.1 M43.3,99.5L43.3,99.5 M51.1,80.1c0.1,0.2,0.2,0.4,0.3,0.6
	c0.1,0.2,0.2,0.4,0.3,0.6c0,0,0,0.1,0.1,0.1c0,0.1,0.1,0.2,0.1,0.2c0.1,0.2,0.1,0.3,0.1,0.5c0,0,0,0,0,0c0,0.1,0,0.2,0,0.3
	c0,0.4,0,0.8,0,1.3c0,0.1,0,0.2,0,0.3l0,0.1c0,0.2,0,0.3-0.1,0.4c0,0.2-0.1,0.5-0.1,0.7c0,0,0,0,0,0c0,0.1,0,0.1,0,0.2
	c-0.3,1.2-0.7,2.4-1.3,3.5l0,0.1l-0.1,0.1c-0.1,0.2-0.2,0.4-0.2,0.6c-0.2,0.4-0.4,0.8-0.5,1.2c-0.3,0.8-0.7,1.5-1.1,2.2
	c-0.4,0.8-0.9,1.6-1.5,2.3c-0.1,0.1-0.2,0.3-0.3,0.4l0,0.1c-0.1,0.1-0.1,0.2-0.2,0.2c-0.3,0.3-0.5,0.6-0.8,0.9
	c-0.4,0.5-0.9,1-1.4,1.4c-0.2,0.2-0.4,0.4-0.6,0.5c-0.1,0.1-0.2,0.1-0.3,0.2l-0.1,0.1c-0.5,0.4-1.1,0.8-1.7,1.1
	c-0.1,0.1-0.2,0.1-0.4,0.2c-0.1,0-0.1,0-0.2,0.1c-0.2,0.1-0.5,0.1-0.8,0.2c-0.3,0.1-0.6,0.1-0.9,0.2c-0.1,0-0.3,0-0.4,0.1
	c-0.1,0-0.2,0-0.4,0c-0.4,0-0.7,0.1-1.1,0.1c0.6-0.3,1.2-0.6,1.7-0.9c3.4-2,5.6-5.4,7.6-8.8c1.9-3,3.2-6.2,4-9.6
	C50.9,81.4,51,80.8,51.1,80.1 M49.1,65.6C49.3,65.7,49.2,65.7,49.1,65.6 M53.9,59.2C53.8,59.3,53.7,59.4,53.9,59.2 M81.2,33.9
	L81.2,33.9 M88.3,22.2L88.3,22.2 M90.1,12.1C90.1,11.9,90.1,12,90.1,12.1 M58,43.7c1.6-3.9,3-7.9,4.3-12c1.1-3.5,2.2-6.9,3.5-10.3
	l0.1-0.3l0,0c0.1-0.2,0.2-0.4,0.3-0.6c0.2-0.5,0.4-0.9,0.6-1.4c0.4-0.9,0.8-1.8,1.3-2.7c0.9-1.7,1.9-3.4,3.1-5
	c0.1-0.1,0.1-0.2,0.2-0.3l0,0l0,0c0.1-0.2,0.3-0.4,0.4-0.5c0.3-0.4,0.7-0.8,1-1.1c0.7-0.7,1.4-1.4,2.1-2.1c0.2-0.2,0.4-0.3,0.6-0.5
	c0.1-0.1,0.2-0.2,0.3-0.2l0.1,0l0,0c0.4-0.3,0.8-0.6,1.3-0.9c0.3-0.2,0.6-0.4,0.9-0.5c0.1-0.1,0.3-0.1,0.4-0.2
	c0.1,0,0.2-0.1,0.3-0.1c0.3-0.1,0.6-0.2,1-0.3c0.2,0,0.3-0.1,0.5-0.1c0.1,0,0.2,0,0.2,0l0,0c0.7-0.1,1.4-0.1,2.1,0
	c0.1,0,0.1,0,0.2,0c0.2,0,0.3,0,0.5,0.1c0.4,0.1,0.7,0.2,1,0.3c0.2,0,0.3,0.1,0.5,0.2c0.1,0,0.2,0.1,0.3,0.1
	c0.3,0.1,0.5,0.3,0.8,0.4c0.3,0.2,0.6,0.3,0.8,0.5c0.1,0,0.1,0.1,0.2,0.1c0.1,0.1,0.3,0.2,0.4,0.3C87.5,6.8,87.8,7,88,7.3
	c0.1,0.1,0.2,0.3,0.3,0.4l0,0c0,0.1,0.1,0.1,0.1,0.2c0.2,0.3,0.4,0.6,0.6,0.9c0.1,0.2,0.2,0.3,0.2,0.5c0,0.1,0.1,0.2,0.1,0.2l0,0
	c0.2,0.5,0.4,1.1,0.5,1.7c0.1,0.3,0.1,0.6,0.2,0.8c0,0,0,0.1,0,0.1l0,0c0,0.2,0,0.3,0.1,0.5c0.1,0.6,0.1,1.2,0,1.9
	c0,0.3,0,0.6-0.1,0.9c0,0.1,0,0.3,0,0.4c0,0.1,0,0.2,0,0.3c-0.1,0.7-0.2,1.3-0.4,1.9c-0.3,1.4-0.8,2.7-1.3,4l0,0l-0.1,0.2
	c-0.1,0.2-0.1,0.3-0.2,0.5c-0.2,0.3-0.3,0.7-0.5,1c-0.3,0.7-0.7,1.3-1,2c-1.5,2.7-3.1,5.3-5,7.7c-0.1,0.1-0.2,0.3-0.3,0.4L81.2,34
	l0,0c-0.2,0.3-0.5,0.6-0.7,0.9c-0.5,0.6-0.9,1.2-1.4,1.7c-0.9,1.1-1.9,2.2-2.9,3.2c-2.8,2.9-5.9,5.5-9.2,7.9
	c-0.7,0.6-1.5,1.1-2.2,1.7l-0.2,0.2l0,0l-0.1,0.1l-0.6,0.5c-0.4,0.3-0.8,0.6-1.2,0.9c-1.1,0.8-2.2,1.6-3.4,2.4
	c-0.7,0.4-1.3,0.8-2,1.2c0.3-0.6,0.7-1.1,1-1.7c2.7-2,5.4-4,8-6.1c2.4-1.9,4.6-4,6.9-6.2c3.1-2.9,5.9-6.1,8.4-9.5
	c2.5-3.5,4.5-7.4,5.8-11.5c0.4-1.1,0.7-2.2,0.9-3.3c0.2-1.2,0.2-2.4,0-3.5c-0.3-2.3-1.6-4.4-3.6-5.5c-1.4-0.8-3-1.1-4.6-0.7
	c-1.4,0.4-2.6,1.1-3.7,2.1c-0.9,0.8-1.8,1.7-2.5,2.6c-1.3,1.5-2.5,3.1-3.5,4.9c-2.1,3.6-3.7,7.5-4.8,11.5c-1.2,3.9-2.5,7.8-4,11.7
	c-0.3,0.7-0.5,1.4-0.8,2.1c-0.1,0.3-0.3,0.7-0.4,1c-0.1,0.2-0.1,0.3-0.2,0.5l0,0.1c0,0-0.1,0.2-0.1,0.2c-0.6,1.5-1.3,2.9-2.1,4.3
	c-1.3,2.3-2.7,4.5-4,6.8c-0.2-0.2-0.5-0.4-0.7-0.5C55,50.3,56.6,47,58,43.7 M85.2,15.6c0,0.2-0.1,0.4-0.1,0.6
	c-0.2,0.9-0.5,1.9-0.8,2.8c-0.2,0.5-0.3,1-0.5,1.4c-0.1,0.2-0.2,0.5-0.3,0.7c0,0.1-0.1,0.2-0.1,0.4l-0.1,0.3
	c-0.8,1.9-1.7,3.8-2.8,5.5c-0.6,0.9-1.2,1.8-1.8,2.6c-0.1,0.2-0.3,0.4-0.4,0.5l-0.1,0.1l-0.2,0.3c-0.3,0.4-0.7,0.8-1,1.3
	c-1.3,1.6-2.7,3.1-4.2,4.6c-2.4,2.4-4.8,4.8-7.4,6.9c-1,0.9-2.1,1.7-3.2,2.5c0-0.1,0.1-0.2,0.1-0.3c0.9-2,1.7-4,2.4-6.1
	c0.7-1.9,1.4-3.9,2.1-5.9c0.7-1.9,1.3-3.9,1.9-5.8c0.3-1,0.6-1.9,0.9-2.9c0.2-0.5,0.3-0.9,0.5-1.4c0.1-0.2,0.2-0.5,0.3-0.7
	c0-0.1,0.1-0.2,0.1-0.3l0,0l0.1-0.2c0.8-1.9,1.7-3.7,2.8-5.5c0.5-0.9,1.1-1.7,1.7-2.5l0.1-0.1l0.2-0.2c0.1-0.2,0.3-0.4,0.5-0.6
	c0.2-0.3,0.4-0.5,0.6-0.7c0.5-0.6,1.1-1.2,1.6-1.8c0.3-0.3,0.6-0.6,0.9-0.8l0.1-0.1l0.1-0.1c0.2-0.1,0.4-0.2,0.5-0.4
	c0.2-0.1,0.3-0.2,0.5-0.3c0,0,0.1,0,0.1,0c0.1,0,0.1-0.1,0.2-0.1c0.2-0.1,0.4-0.1,0.5-0.2c0,0,0.1,0,0.1,0c0,0,0.1,0,0.2,0
	c0.2,0,0.4,0,0.6,0l0,0c0.1,0,0.2,0,0.3,0.1c0.2,0,0.3,0.1,0.4,0.1c0,0,0.1,0,0.1,0.1c0.1,0.1,0.3,0.1,0.4,0.2
	c0.2,0.1,0.3,0.2,0.5,0.3l0.1,0c0,0,0.1,0,0.1,0.1c0.1,0.1,0.3,0.2,0.4,0.4c0.1,0.1,0.1,0.1,0.2,0.2l0,0l0,0
	c0.2,0.3,0.4,0.6,0.5,0.9c0,0,0,0,0,0.1c0,0,0,0.1,0.1,0.1c0.1,0.2,0.1,0.4,0.2,0.6c0,0.2,0.1,0.3,0.1,0.5c0,0.1,0.1,0.3,0.1,0.4
	c0,0.3,0.1,0.7,0.1,1c0,0.4,0,0.7-0.1,1.1l0,0C85.2,15.5,85.2,15.6,85.2,15.6 M85.2,15.5C85.2,15.6,85.2,15.7,85.2,15.5 M39.9,66.6
	c0.1,0,0.1,0,0.2,0c0.2,0,0.4,0.1,0.6,0.1c0.3,0.1,0.6,0.2,1,0.3l0.1,0c0.1,0.1,0.2,0.1,0.3,0.2c0.1,0.1,0.3,0.1,0.4,0.2
	c0.2,0.1,0.3,0.2,0.5,0.2c0.1,0,0.1,0.1,0.2,0.1c0.7,0.5,1.4,0.9,2.1,1.4c0.2,0.1,0.3,0.2,0.4,0.3l0,0c0.2,0.1,0.3,0.3,0.5,0.4
	c0.4,0.4,0.9,0.8,1.3,1.2c0.2,0.2,0.4,0.5,0.6,0.7c0.1,0.1,0.2,0.2,0.3,0.3c0,0,0.1,0.2,0.2,0.2c0.1,0.2,0.2,0.3,0.3,0.5
	c-0.1-0.1-0.2-0.1-0.3-0.2c-0.9-0.6-1.7-1.2-2.6-1.8c-0.9-0.6-1.7-1.1-2.6-1.7c-1-0.5-2-0.9-3.1-1c-0.1,0-0.1,0-0.2,0
	c-0.2,0-0.4,0-0.6,0c-0.4,0-0.7,0.1-1,0.2c-0.6,0.2-1.2,0.5-1.7,0.8c0,0-0.1,0.1-0.1,0.1l-0.2-0.1l-0.3-0.2
	c-0.1-0.1-0.1-0.1,0.1,0.1L36.2,69c-0.4-0.3-0.7-0.6-1.1-0.8c0.1-0.1,0.2-0.2,0.3-0.2c0.1-0.1,0.2-0.1,0.3-0.2
	c0.3-0.2,0.6-0.3,0.8-0.5c0.1-0.1,0.3-0.1,0.4-0.2l0,0l0.1,0c0.3-0.1,0.5-0.2,0.8-0.2c0.1,0,0.3-0.1,0.4-0.1c0,0,0.1,0,0.2,0
	c0.5,0,0.9-0.1,1.4,0L39.9,66.6"/>
</svg>
