<svg xmlns="http://www.w3.org/2000/svg" xmlns:xlink="http://www.w3.org/1999/xlink" x="0px"
	 y="0px" viewBox="0 0 53.6 53.6" style="enable-background:new 0 0 53.6 53.6;" xml:space="preserve">
<path d="M43,5.4C38.9,2.3,34,0.5,29,0.1C27.5,0,26,0,24.6,0.1c-0.5,0-0.9,0.1-1.4,0.2C8.5,2.3-1.8,15.8,0.2,30.5
	c1.6,11.6,10.6,20.9,22.2,22.8c0.2,0,0.5,0.1,0.7,0.1c14.7,2,28.2-8.3,30.2-22.9C54.7,20.8,50.7,11.2,43,5.4 M6.7,31
	C4.4,19.9,11.5,9,22.6,6.7c0.2,0,0.4-0.1,0.6-0.1c0.2,0,0.4-0.1,0.7-0.1c-0.2,0.7-0.4,1.5-0.7,2.3l0,0c-1.6,4.6-3.9,8.8-6.8,12.7
	C13.6,25.1,10.4,28.3,6.7,31 M23.7,47.2c-0.2,0-0.4-0.1-0.6-0.1c-6.6-1.2-12.2-5.6-15-11.7c4.5-3.1,8.5-6.9,11.7-11.3
	c1.2-1.6,2.3-3.2,3.3-4.9c2.4-4,4.2-8.3,5.2-12.9c8,0.6,14.9,5.8,17.7,13.3c-5.8,3.2-10.8,7.7-14.7,13.1
	C28.1,37.1,25.5,41.9,23.7,47.2 M43.3,39.2c-3.6,4.7-9,7.7-14.9,8.1c1.6-4.3,3.8-8.3,6.6-11.9c3.3-4.5,7.5-8.4,12.3-11.3
	C47.9,29.5,46.5,34.9,43.3,39.2"/>
</svg>
