<svg width="17" height="12" viewBox="0 0 17 12" fill="none" xmlns="http://www.w3.org/2000/svg">
<path d="M9.5 5.4V5.7C9.5 6.7 9.5 7.8 9.3 8.8L9.2 9.2C9.2 9.4 9.1 9.6 9 9.9C8.7 10.4 8.2 10.7 7.7 10.7H7.6C7.2 10.6 6.8 10.5 6.5 10.4C4.8 9.5 3.2 8.4 1.8 7.2L1.5 6.8C1.4 6.8 1.4 6.7 1.3 6.6C1.1 6.3 1 6 1 5.7C1 5.4 1.1 5 1.3 4.7L1.6 4.3L1.7 4.2C3.1 2.8 4.8 1.7 6.6 0.8L6.8 0.7C7.1 0.6 7.3 0.5 7.6 0.5C7.9 0.5 8.1 0.6 8.4 0.7C8.7 1 8.9 1.3 9 1.6C9.1 1.9 9.2 2.2 9.2 2.5C9.4 3.4 9.5 4.4 9.5 5.4Z" fill="black"/>
<path d="M16.0001 5.6999C16.0001 6.3999 15.4001 6.9999 14.7001 6.9999L11.6001 6.6999C11.1001 6.6999 10.6001 6.1999 10.6001 5.6999C10.6001 5.1999 11.0001 4.7999 11.6001 4.6999L14.7001 4.3999C15.4001 4.3999 16.0001 4.9999 16.0001 5.6999Z" fill="black"/>
</svg>
