<svg width="207" height="207" viewBox="0 0 207 207" fill="none" xmlns="http://www.w3.org/2000/svg">
<g clip-path="url(#clip0_538_46)">
<path d="M88.0998 201.8C73.8998 194.7 59.1998 188.6 44.0998 183.4C34.0998 180 26.2998 172.2 22.9998 162.1C17.9998 147.1 11.8998 132.3 4.99981 118C0.299813 108.6 0.399813 97.5001 5.09981 88.1001C12.1998 73.9001 18.2998 59.2001 23.4998 44.1001C26.8998 34.1001 34.6998 26.3001 44.7998 23.0001C59.7998 18.0001 74.5998 11.9001 88.8998 5.00006C98.2998 0.300057 109.4 0.400057 118.8 5.10006C133 12.2001 147.7 18.3001 162.8 23.5001C172.8 26.9001 180.6 34.7001 183.9 44.8001C189 59.9001 195 74.6001 202 88.9001C206.7 98.3001 206.6 109.4 201.9 118.8C194.8 133 188.7 147.7 183.5 162.8C180.1 172.8 172.3 180.6 162.2 183.9C147.1 189 132.4 195 118.1 202C108.6 206.6 97.4998 206.6 88.0998 201.8Z" stroke="black" stroke-width="2" stroke-linecap="round" stroke-linejoin="round"/>
<path d="M22.7996 137.9C21.2996 134.5 20.0996 130.9 19.0996 127.3" stroke="black" stroke-width="2" stroke-linecap="round" stroke-linejoin="round"/>
<path d="M92.4997 190.5C64.6997 187 40.2997 170.5 26.6997 146" stroke="black" stroke-width="2" stroke-linecap="round" stroke-linejoin="round"/>
<path d="M179.8 60.4001C181.4 63.2001 182.8 66.2001 184.1 69.1001" stroke="black" stroke-width="2" stroke-linecap="round" stroke-linejoin="round"/>
<path d="M127.9 19.2C147 24.7 163.6 36.5999 175 52.7999" stroke="black" stroke-width="2" stroke-linecap="round" stroke-linejoin="round"/>
</g>
<defs>
<clipPath id="clip0_538_46">
<rect width="206.9" height="206.9" fill="white"/>
</clipPath>
</defs>
</svg>
