<svg width="32" height="40" viewBox="0 0 32 40" fill="none" xmlns="http://www.w3.org/2000/svg">
<g clip-path="url(#clip0_535_2)">
<path d="M15.8 2.4C23.2 2.4 29.2 8.4 29.2 15.8C29.2 25.7 19.3 34.1 15.8 36.8C12.2 34.1 2.4 25.9 2.4 15.8C2.4 8.4 8.4 2.4 15.8 2.4ZM15.8 25.3C21.1 25.3 25.3 21 25.3 15.8C25.3 10.5 21 6.3 15.8 6.3C10.5 6.3 6.3 10.6 6.3 15.8C6.3 21.1 10.6 25.3 15.8 25.3ZM15.8 0C7.1 0 0 7.1 0 15.8C0 29.5 15.8 39.7 15.8 39.7C15.8 39.7 31.6 29.3 31.6 15.8C31.6 7.1 24.5 0 15.8 0ZM15.8 23C11.9 23 8.7 19.8 8.7 15.9C8.7 12 11.9 8.8 15.8 8.8C19.7 8.8 22.9 12 22.9 15.9C23 19.8 19.8 23 15.8 23Z" fill="black"/>
</g>
<defs>
<clipPath id="clip0_535_2">
<rect width="31.6" height="39.7" fill="white"/>
</clipPath>
</defs>
</svg>
