<svg width="156" height="140" viewBox="0 0 156 140" fill="none" xmlns="http://www.w3.org/2000/svg">
<path d="M51.6271 1.20608C42.3641 3.44808 33.7501 11.2361 30.5051 20.2631L29.4431 23.2131L25.1361 23.9211C18.8231 24.9831 13.3951 27.8741 9.08814 32.4761C2.83414 39.1431 0.356144 46.2821 0.887144 56.1351C1.41814 66.6961 5.13514 75.3691 12.6871 83.3931L16.7581 87.6411L15.6961 92.2431C11.9201 108.822 17.6431 125.106 30.1511 133.425C40.9481 140.564 52.5711 141.331 68.8551 136.08L76.1711 133.661L84.9031 136.08C100.066 140.328 109.624 139.974 119.89 134.841C128.268 130.652 134.581 123.1 137.944 113.365C139.242 109.53 139.596 107.288 139.832 101.506C139.95 97.3171 139.832 93.0691 139.419 91.2401L138.77 88.1721L143.018 83.6291C150.806 75.4281 154.582 66.8141 155.113 56.1351C155.644 46.2821 153.166 39.1431 146.912 32.4761C142.605 27.8741 137.177 24.9831 130.864 23.9211L126.557 23.2131L125.495 20.2631C121.365 8.81707 109.506 0.380082 97.5881 0.380082C92.1011 0.380082 84.5491 2.91708 79.6521 6.39808C78.0001 7.51908 78.0001 7.51908 76.4071 6.39808C69.1501 1.32408 59.5921 -0.681918 51.6271 1.20608ZM66.5541 12.7701C68.5011 13.6551 71.5101 15.6021 73.1621 17.1361C77.2331 20.7351 78.7671 20.7351 82.7201 17.1951C95.9951 5.39508 112.633 10.5281 117.176 27.8151C118.474 32.9481 119.359 33.5381 125.495 33.7151C129.861 33.8921 131.159 34.1871 134.345 35.7211C140.717 38.9071 144.375 44.7481 145.083 52.8901C145.85 62.3301 140.127 73.9531 131.454 80.5021C129.625 81.8591 128.032 83.6291 127.796 84.3961C127.619 85.2221 128.032 88.0541 128.681 90.7091C133.342 109.176 123.666 125.696 106.556 128.528C101.6 129.354 95.4051 128.587 87.0861 126.05C77.7051 123.159 75.4631 123.159 66.7901 125.932C57.5271 128.882 51.9221 129.708 46.5531 129C36.4051 127.525 28.3811 120.386 25.7851 110.415C24.4871 105.4 24.6641 98.2611 26.1391 92.6561C28.3811 84.5141 28.3221 83.8061 25.7261 81.6231C15.5191 73.1271 10.0911 62.6251 10.9171 52.8901C11.6251 44.7481 15.2831 38.9071 21.6551 35.7211C24.8411 34.1871 26.1391 33.8921 30.5051 33.7151C36.6411 33.5381 37.5261 32.9481 38.8241 27.8151C41.1841 18.8471 46.7891 12.8291 54.3411 11.2361C58.6481 10.3511 62.1291 10.7641 66.5541 12.7701Z" fill="white"/>
<path d="M54.5772 22.9771C47.9692 26.6941 47.6742 40.5591 53.9872 48.8781C56.1702 51.7101 60.2412 54.0701 62.9552 54.0701C65.3152 54.0701 68.4422 52.0051 69.8582 49.5271C74.3422 41.9161 70.2122 27.0481 62.5422 23.0361C60.5952 22.0331 56.3472 21.9741 54.5772 22.9771Z" fill="white"/>
<path d="M93.0453 23.3311C87.0273 27.0481 83.1923 36.4881 84.4903 44.3941C85.1393 48.4651 86.6143 51.0021 89.2103 52.7131C91.6883 54.4241 94.2253 54.4241 97.5293 52.7131C107.382 47.5211 109.978 27.7561 101.423 22.9771C99.4763 21.8561 95.0513 22.0331 93.0453 23.3311Z" fill="white"/>
<path d="M28.4404 45.1019C24.3104 45.8099 21.5374 50.5889 22.1274 55.8989C23.5434 67.7579 36.5824 78.319 43.7804 73.4219C46.6124 71.5339 47.6154 69.2329 47.5564 64.9849C47.4974 59.9109 45.5504 55.3679 41.6564 51.1199C37.3494 46.5179 32.6884 44.3939 28.4404 45.1019Z" fill="white"/>
<path d="M122.781 45.4561C115.288 47.4031 108.562 56.6071 108.444 64.9851C108.385 69.2331 109.388 71.5341 112.22 73.4221C117.707 77.1391 127.501 71.7701 131.749 62.6841C136.882 51.7691 132.339 42.9781 122.781 45.4561Z" fill="white"/>
<path d="M72.9852 59.557C68.7372 60.973 66.6722 62.389 61.2442 67.581C58.2942 70.354 53.7512 74.189 51.0962 76.018C45.2552 80.148 42.0102 83.57 39.6502 88.231C35.9332 95.665 35.1072 105.282 37.7622 110.474C39.2962 113.483 42.4232 116.256 45.2552 117.2C49.0902 118.498 56.2292 117.672 63.8402 115.076C69.7992 113.07 71.2742 112.775 76.2302 112.775C81.0092 112.775 83.0152 113.129 89.8002 115.135C105.199 119.619 112.633 117.613 117.176 107.819C119.064 103.689 118.887 95.075 116.822 90.65C114.58 85.694 110.627 81.328 102.013 74.189C97.7652 70.649 92.7502 66.401 90.9802 64.749C89.2102 63.038 86.6142 61.15 85.1982 60.501C82.0712 58.967 76.1712 58.495 72.9852 59.557Z" fill="white"/>
</svg>
