<svg xmlns="http://www.w3.org/2000/svg" xmlns:xlink="http://www.w3.org/1999/xlink" x="0px" y="0px"
	 viewBox="0 0 64.3 58.2" style="enable-background:new 0 0 64.3 58.2;" xml:space="preserve">

	<path d="M16.7,19.3c-0.7,0-1.3,0.6-1.3,1.4s0.6,1.3,1.4,1.3c0.7,0,1.3-0.6,1.3-1.4C18,19.9,17.4,19.3,16.7,19.3L16.7,19.3z"/>
	<polygon points="11.9,23.9 11.9,23.9 11.9,23.9 	"/>
	<path d="M8,19.3c-0.7,0-1.3,0.6-1.3,1.4S7.3,22,8,22c0.7,0,1.3-0.6,1.3-1.4C9.4,19.9,8.8,19.3,8,19.3L8,19.3z"/>
	<path d="M10.6,24.8c-0.1,0.7,0.5,1.4,1.2,1.5c0.7,0.1,1.4-0.5,1.5-1.2c0-0.1,0-0.2,0-0.3c0-0.7-0.6-1-1.3-1
		C11.2,23.9,10.6,24.1,10.6,24.8z"/>
	<path d="M42.8,26.6c3.3,0,6-1.4,6-3.2s-2.7-3.2-6-3.2s-6,1.4-6,3.2S39.5,26.6,42.8,26.6z"/>
	<path d="M48.8,17.4c0-0.7-0.6-1.4-1.4-1.4c0,0,0,0,0,0c-0.7,0-1.3,0.6-1.3,1.4s0.6,1.3,1.4,1.3C48.2,18.7,48.8,18.1,48.8,17.4z"/>
	<path d="M64,15c-0.3-1-0.8-1.9-1.4-2.7c-2.2-3-5.2-5.4-8.6-6.9c-7.3-2.9-15.3-2.9-22.6,0c-1.2,0.6-2.4,1.2-3.5,2l0-0.1
		C27.2,5,26.2,2.7,25,0.6c-0.1-0.1-0.2-0.3-0.3-0.4c-0.5-0.3-1.2-0.2-1.5,0.3C22,2,21,3.6,20.2,5.3c-0.7,1.4-1.3,2.8-1.8,4.3
		c-2.4-0.5-4.8-0.5-7.2,0C10.6,8.1,10,6.7,9.3,5.3c-0.8-1.7-1.8-3.4-3-4.9C6.2,0.3,6.1,0.2,6,0.1C5.5-0.2,4.8,0,4.5,0.6
		C1.8,5.3,0.3,10.6,0,16c-0.2,5.3,1.2,9.9,3.8,13.2C4.9,30.8,6.4,32,8,32.9c2.4,1.3,5.1,1.8,7.8,1.6c2.7-0.2,5.3-1.3,7.4-2.9
		c1.5-1.2,2.8-2.7,3.8-4.4c0.3-0.5,0.1-1.2-0.4-1.5s-1.2-0.1-1.5,0.4c-0.8,1.5-1.9,2.7-3.2,3.7c-1.8,1.4-4,2.3-6.3,2.5
		c-2.3,0.2-4.6-0.3-6.6-1.3c-1.4-0.8-2.6-1.8-3.5-3C3.3,25,2.1,20.9,2.2,16.1c0.2-4.5,1.4-8.9,3.4-12.9c0.6,1,1.2,2,1.7,3.1
		c0.8,1.6,1.5,3.3,2.1,5c0.2,0.5,0.8,0.8,1.3,0.7c2.6-0.7,5.3-0.7,7.9,0c0.6,0.2,1.2-0.1,1.4-0.7c0.7-1.7,1.3-3.4,2.1-5
		c0.5-1.1,1.1-2.1,1.7-3.1c0.8,1.5,1.4,3.1,1.9,4.8c0.1,0.3,0.2,0.6,0.3,0.9c-1.2,1-2.2,2.2-3.2,3.4c-0.6,0.8-1.1,1.7-1.4,2.7
		c-0.2,0.8-0.3,1.6-0.2,2.4c0.1,0.9,0.6,1.7,1.3,2.2c0.4,0.3,0.9,0.5,1.4,0.7c0.6,0.2,1.1,0.2,1.7,0.2c0.9-0.1,1.7-0.5,2.3-1.1
		c0.5-0.6,0.9-1.3,1.1-2.1c0.3-1,0.4-2.1,0.3-3.2c-0.2-1.5-0.4-3-0.8-4.5c1.2-0.9,2.4-1.7,3.8-2.3c3.3-1.4,6.8-2.1,10.4-2h0
		c3.6-0.1,7.1,0.5,10.4,2c3.1,1.4,5.7,3.6,7.7,6.3c0.5,0.6,0.8,1.3,1,2c0.2,0.5,0.2,1,0.2,1.4c0,0.3-0.2,0.6-0.5,0.8
		c-0.2,0.1-0.4,0.2-0.6,0.3c-1,0.3-1.8-0.6-2.6-1.4c-0.1-0.1-0.3-0.3-0.4-0.4c-0.9-0.9-1.9-1.8-2.9-2.6c-1.1-0.9-2.3-1.7-3.5-2.3
		c-0.3-0.2-0.7-0.2-1-0.1c-0.6,0.2-0.8,0.9-0.6,1.4c0.5,1.2,1,2.4,1.6,3.6c1.2,2.6,2.4,5.3,3.3,8.1c1.2,3.7-1.5,6.2-5.4,7.4
		c-4.4,1.3-9,1.3-13.3,0c-3.9-1.2-6.6-3.7-5.4-7.4c1-2.7,2.1-5.4,3.3-8.1c0.5-1.2,1.1-2.4,1.6-3.6c0.2-0.6,0-1.2-0.6-1.4
		s-1.2,0-1.4,0.6l0,0c-0.4,1-1,2.2-1.6,3.5c-1.3,2.7-2.4,5.5-3.4,8.3c-1.6,5.2,1.8,8.6,6.9,10.2c4.8,1.4,9.9,1.4,14.7,0
		c5.1-1.6,8.5-5,6.9-10.2c-1-2.8-2.1-5.6-3.4-8.3l0-0.1l0.1,0.1c0.9,0.8,1.8,1.6,2.7,2.5c0.1,0.1,0.3,0.3,0.4,0.4
		c1.2,1.3,2.6,2.7,4.9,2c0.5-0.1,1-0.4,1.4-0.7c0.7-0.5,1.2-1.4,1.3-2.2C64.4,16.6,64.3,15.8,64,15z M27,16.7
		c-0.1,0.4-0.3,0.9-0.6,1.2c-0.2,0.3-0.5,0.4-0.9,0.4c-0.3,0-0.6,0-0.9-0.1c-0.2-0.1-0.5-0.2-0.6-0.3c-0.3-0.2-0.4-0.5-0.5-0.8
		c-0.1-0.5,0-1,0.2-1.4c0.2-0.7,0.6-1.4,1-2c0.6-0.8,1.3-1.6,2-2.3v0c0.2,1,0.4,2,0.5,3.1C27.3,15.1,27.2,15.9,27,16.7z"/>
	<path d="M38.6,18.7c0.7,0,1.3-0.6,1.3-1.4c0-0.7-0.6-1.4-1.4-1.4c0,0,0,0,0,0c-0.7,0-1.3,0.6-1.3,1.4S37.9,18.7,38.6,18.7z"/>
	<path d="M16.1,42.2c-0.5-0.4-1-0.7-1.5-0.9c-0.5-0.2-1.1-0.3-1.6-0.3H9.1c-0.5,0-0.8,0.1-1,0.2c-0.2,0.1-0.3,0.3-0.4,0.5
		c-0.1,0.2-0.1,0.5-0.1,0.7v10.4c0,0.2,0,0.5,0.1,0.7c0.1,0.2,0.2,0.4,0.4,0.6c0.2,0.1,0.5,0.2,1,0.2s0.8-0.1,1-0.2
		c0.2-0.1,0.3-0.3,0.4-0.5c0.1-0.2,0.1-0.5,0.1-0.7v-2.5H13c0.5,0,1.1-0.1,1.6-0.3c0.5-0.2,1-0.5,1.5-0.9c0.5-0.4,0.8-0.9,1.1-1.5
		s0.4-1.3,0.4-2c0-0.8-0.1-1.5-0.4-2.1C17,43.1,16.6,42.6,16.1,42.2z M14.5,46.8c-0.2,0.3-0.4,0.5-0.7,0.6c-0.3,0.1-0.5,0.2-0.8,0.2
		h-2.5V44H13c0.4,0,0.7,0.1,0.9,0.2s0.5,0.4,0.6,0.6c0.2,0.3,0.2,0.6,0.2,0.9C14.8,46.2,14.7,46.5,14.5,46.8z"/>
	<path d="M27.4,50c0.3-0.3,0.5-0.9,0.5-1.5c0-0.4-0.1-0.8-0.3-1.2c-0.2-0.4-0.4-0.8-0.8-1.2c-0.3-0.4-0.8-0.7-1.3-0.9
		c-0.5-0.2-1.2-0.4-1.9-0.4c-1,0-1.9,0.2-2.6,0.6c-0.8,0.4-1.4,1-1.8,1.7c-0.4,0.7-0.6,1.6-0.6,2.5c0,0.6,0.1,1.2,0.3,1.7
		c0.2,0.6,0.5,1.1,0.9,1.6c0.4,0.5,0.9,0.9,1.6,1.1c0.6,0.3,1.4,0.4,2.3,0.4c0.8,0,1.5-0.1,2-0.2c0.6-0.1,1-0.3,1.3-0.6
		c0.3-0.2,0.5-0.5,0.5-0.8c0-0.1,0-0.3,0-0.4c0-0.1-0.1-0.3-0.2-0.4c-0.1-0.2-0.3-0.4-0.4-0.5s-0.3-0.2-0.5-0.2
		c-0.1,0-0.2,0-0.3,0.1s-0.2,0.1-0.4,0.1c-0.1,0.1-0.3,0.1-0.5,0.2c-0.2,0.1-0.4,0.1-0.6,0.1c-0.2,0-0.5,0-0.8,0
		c-0.4,0-0.7-0.1-1-0.2c-0.3-0.1-0.6-0.3-0.8-0.5c-0.2-0.2-0.3-0.5-0.4-0.8h4.5C26.6,50.5,27,50.3,27.4,50z M25,48.8
		c-0.1,0.1-0.2,0.1-0.4,0.1h-3c0-0.3,0.1-0.6,0.3-0.8c0.2-0.3,0.4-0.5,0.7-0.6c0.3-0.2,0.7-0.2,1-0.2c0.3,0,0.6,0,0.8,0.1
		c0.2,0.1,0.4,0.2,0.6,0.4s0.2,0.4,0.2,0.6C25.2,48.6,25.1,48.7,25,48.8z"/>
	<path d="M35.1,45c-0.2,0-0.4-0.1-0.7-0.1l-1.3,0v-1.8c0-0.3,0-0.5-0.1-0.7c0-0.2-0.2-0.4-0.4-0.5c-0.2-0.1-0.5-0.2-1-0.2
		s-0.8,0.1-1,0.2s-0.3,0.3-0.4,0.5c0,0.2-0.1,0.4-0.1,0.7V45h-0.6c-0.4,0-0.6,0.1-0.8,0.3s-0.3,0.6-0.3,1c0,0.5,0.1,0.8,0.2,1.1
		s0.4,0.3,0.8,0.3h0.7v3c0,0.6,0.1,1.2,0.2,1.6c0.1,0.5,0.4,0.8,0.7,1.1c0.3,0.3,0.7,0.5,1.1,0.6c0.5,0.1,1,0.2,1.7,0.2
		c0.2,0,0.5,0,0.7-0.1s0.4-0.2,0.5-0.4c0.1-0.2,0.2-0.5,0.2-1c0-0.4-0.1-0.7-0.2-0.9s-0.3-0.3-0.5-0.3c-0.2-0.1-0.5-0.1-0.7-0.1
		c-0.2,0-0.3,0-0.4,0c-0.1,0-0.2-0.1-0.3-0.1s-0.1-0.2-0.1-0.3s0-0.3,0-0.5v-2.9l1.3,0c0.3,0,0.5,0,0.7-0.1c0.2-0.1,0.4-0.2,0.5-0.4
		c0.1-0.2,0.2-0.5,0.2-0.9c0-0.5-0.1-0.8-0.2-1C35.5,45.2,35.3,45,35.1,45z"/>
	<path d="M42.9,45c-0.2,0-0.4-0.1-0.7-0.1l-1.3,0v-1.8c0-0.3,0-0.5-0.1-0.7c0-0.2-0.2-0.4-0.4-0.5c-0.2-0.1-0.5-0.2-1-0.2
		s-0.8,0.1-1,0.2c-0.2,0.1-0.3,0.3-0.4,0.5c0,0.2-0.1,0.4-0.1,0.7V45h-0.6c-0.4,0-0.6,0.1-0.8,0.3c-0.2,0.2-0.3,0.6-0.3,1
		c0,0.5,0.1,0.8,0.2,1.1s0.4,0.3,0.8,0.3h0.7v3c0,0.6,0.1,1.2,0.2,1.6c0.1,0.5,0.4,0.8,0.7,1.1c0.3,0.3,0.7,0.5,1.1,0.6
		c0.5,0.1,1,0.2,1.7,0.2c0.2,0,0.5,0,0.7-0.1s0.4-0.2,0.5-0.4c0.1-0.2,0.2-0.5,0.2-1c0-0.4-0.1-0.7-0.2-0.9
		c-0.1-0.2-0.3-0.3-0.5-0.3c-0.2-0.1-0.5-0.1-0.7-0.1c-0.2,0-0.3,0-0.4,0s-0.2-0.1-0.3-0.1c-0.1-0.1-0.1-0.2-0.1-0.3
		c0-0.1,0-0.3,0-0.5v-2.9l1.3,0c0.3,0,0.5,0,0.7-0.1c0.2-0.1,0.4-0.2,0.5-0.4c0.1-0.2,0.2-0.5,0.2-0.9c0-0.5-0.1-0.8-0.2-1
		C43.3,45.2,43.1,45,42.9,45z"/>
	<path d="M53.4,44.9c-0.5-0.2-0.9-0.3-1.2-0.2c-0.3,0.1-0.5,0.4-0.7,0.9l-1.8,4L47,45.5c-0.3-0.4-0.6-0.7-0.8-0.8
		c-0.3-0.1-0.7,0-1.1,0.4c-0.4,0.3-0.7,0.6-0.8,0.9c-0.1,0.3,0.1,0.6,0.3,1l3.7,5.7l-1.6,3.6c-0.2,0.5-0.3,0.8-0.2,1.1
		s0.4,0.5,0.9,0.8c0.5,0.2,0.9,0.3,1.2,0.2c0.3-0.1,0.5-0.4,0.7-0.9l4.8-10.7c0.2-0.4,0.3-0.8,0.2-1.1
		C54.2,45.4,53.9,45.2,53.4,44.9z"/>

</svg>
