<svg width="94" height="94" viewBox="0 0 94 94" fill="none" xmlns="http://www.w3.org/2000/svg">
<path d="M90.5 24.7C89.3 23.5 87.6 22.8 85.9 23L86.8 22.1C89.3 19.6 90.3 15.9 89.4 12.5C88.5 9.09995 85.8 6.39995 82.4 5.49995C79 4.59995 75.3 5.59995 72.8 8.09995L72.4 8.49995C72.4 7.19995 71.9 5.99995 71 5.09995L69 3.19995C67.7 1.89995 65.8999 1.19995 64.0999 1.19995C62.2999 1.19995 60.5 1.89995 59.2 3.19995L3.19995 59.2C1.89995 60.5 1.19995 62.2999 1.19995 64.0999C1.19995 65.8999 1.89995 67.7 3.19995 69L5.09995 70.9C5.99995 71.8 7.19995 72.3 8.49995 72.3L7.99995 72.8C5.49995 75.3 4.49995 79 5.39995 82.4C6.29995 85.8 8.99995 88.5 12.4 89.4C15.8 90.3 19.5 89.3 22 86.8L22.9 85.9C22.8 87.6 23.4 89.3 24.6 90.5C26.2 92.1 28.4 93 30.7 93C33 93 35.1999 92.1 36.7999 90.5L90.4 36.9C92 35.3 92.9 33.0999 92.9 30.7999C93 28.4999 92.1 26.3 90.5 24.7ZM6.19995 69.9L4.29995 68C3.29995 67 2.69995 65.5999 2.69995 64.0999C2.69995 62.6999 3.29995 61.3 4.29995 60.2L60.2999 4.19995C61.2999 3.19995 62.6999 2.59995 64.1999 2.59995C65.5999 2.59995 67 3.19995 68.1 4.19995L70 6.09995C70.6 6.69995 71 7.59995 71 8.49995C71 9.39995 70.6 10.3 70 10.9L11 69.9C10.4 70.5 9.49995 70.9 8.59995 70.9C7.69995 70.9 6.79995 70.5 6.19995 69.9ZM21 85.7C18.9 87.8 15.8 88.7 12.9 87.9C9.99995 87.1 7.69995 84.9 6.99995 82C6.19995 79.1 7.09995 76 9.19995 73.9L73.9 9.19995C76 7.09995 79.1 6.19995 82 6.99995C84.9 7.79995 87.2 9.99995 87.9 12.9C88.7 15.8 87.8 18.9 85.7 21L53.4 53.4L21 85.7ZM89.4 35.7999L35.7999 89.4C34.4999 90.7 32.6999 91.5 30.7999 91.5C28.8999 91.5 27.0999 90.8 25.7999 89.4C24.9999 88.6 24.5 87.4 24.5 86.2C24.5 85 24.9999 83.9 25.7999 83L54.5 54.2999L83.2 25.6C84 24.8 85.2 24.2999 86.4 24.2999C87.6 24.2999 88.7 24.8 89.6 25.6C90.9 26.9 91.7 28.6999 91.7 30.5999C91.5 32.6999 90.7 34.4999 89.4 35.7999Z" fill="black" stroke="black" stroke-miterlimit="10"/>
<path d="M60.2999 35.3C60.3999 33.4 60.4999 31.7 62.2999 29.9C64.0999 28.1 65.7999 28 67.6999 27.9C69.5999 27.8 71.8999 27.7 74.0999 25.5C76.2999 23.3 76.3999 21.1 76.4999 19.1C76.5999 17.2 76.6999 15.5 78.4999 13.7C78.7999 13.4 78.7999 12.9 78.4999 12.7C78.1999 12.4 77.7999 12.4 77.4999 12.7C75.2999 14.9 75.1999 17.1 75.0999 19.1C74.9999 21 74.8999 22.7 73.0999 24.5C71.2999 26.3 69.5999 26.4 67.6999 26.5C65.6999 26.6 63.4999 26.7 61.2999 28.9C59.0999 31.1 58.9999 33.3 58.8999 35.3C58.7999 37.3 58.6999 38.9 56.8999 40.7C55.0999 42.5 53.3999 42.6 51.4999 42.7C49.4999 42.8 47.2999 42.9 45.0999 45.1C42.8999 47.3 42.7999 49.5 42.6999 51.5C42.5999 53.5 42.4999 55.1 40.6999 56.9C38.8999 58.7 37.1999 58.8 35.2999 58.9C33.2999 59 31.0999 59.1 28.8999 61.3C26.6999 63.5 26.5999 65.7 26.4999 67.7C26.3999 69.7 26.2999 71.3 24.4999 73.1C22.6999 74.9 20.9999 75 19.0999 75.1C17.0999 75.2 14.8999 75.3 12.6999 77.5C12.3999 77.8 12.3999 78.3 12.6999 78.6C12.9999 78.9 13.4999 78.9 13.7999 78.6C15.5999 76.8 17.2999 76.7 19.1999 76.6C21.0999 76.5 23.3999 76.4 25.5999 74.2C27.7999 72 27.8999 69.8 27.9999 67.8C28.0999 65.8 28.1999 64.2 29.9999 62.4C31.7999 60.6 33.4999 60.5 35.3999 60.4C37.3999 60.3 39.5999 60.2 41.7999 58C43.9999 55.8 44.0999 53.6 44.1999 51.6C44.2999 49.7 44.3999 48 46.1999 46.2C47.9999 44.4 49.6999 44.3 51.5999 44.2C53.4999 44.1 55.7999 44 57.9999 41.8C60.0999 39.5 60.1999 37.3 60.2999 35.3Z" fill="black" stroke="black" stroke-miterlimit="10"/>
</svg>
