<?xml version="1.0" standalone="no"?>
<!DOCTYPE svg PUBLIC "-//W3C//DTD SVG 20010904//EN"
 "http://www.w3.org/TR/2001/REC-SVG-20010904/DTD/svg10.dtd">
<svg version="1.0" xmlns="http://www.w3.org/2000/svg"
 width="1280.000000pt" height="1169.000000pt" viewBox="0 0 1280.000000 1169.000000"
 preserveAspectRatio="xMidYMid meet">
<metadata>
Created by potrace 1.15, written by Peter Selinger 2001-2017
</metadata>
<g transform="translate(0.000000,1169.000000) scale(0.100000,-0.100000)"
fill="#000000" stroke="none">
<path d="M4665 11416 c-266 -48 -512 -169 -694 -340 -95 -90 -204 -242 -275
-383 -175 -350 -290 -1004 -258 -1465 33 -472 174 -823 436 -1084 222 -222
481 -334 776 -334 292 0 552 102 748 294 182 177 296 388 370 682 61 240 67
311 66 729 0 470 -15 633 -84 906 -130 518 -424 891 -775 984 -81 22 -225 27
-310 11z"/>
<path d="M8090 11229 c-79 -10 -217 -52 -285 -86 -143 -73 -305 -222 -407
-374 -227 -338 -378 -919 -378 -1449 0 -266 29 -450 104 -666 117 -335 331
-586 621 -729 145 -72 273 -105 432 -112 470 -22 853 200 1063 617 155 308
210 685 181 1240 -17 331 -48 516 -119 721 -201 579 -675 907 -1212 838z"/>
<path d="M11154 8450 c-411 -93 -663 -428 -749 -995 -8 -55 -22 -246 -30 -425
-8 -179 -24 -439 -35 -579 -35 -445 -25 -699 35 -888 117 -365 435 -543 972
-543 216 0 370 28 523 94 273 118 487 367 593 691 177 537 98 1305 -195 1915
-129 267 -311 502 -482 619 -66 46 -200 107 -264 120 -81 17 -274 12 -368 -9z"/>
<path d="M1375 8396 c-295 -69 -550 -264 -762 -583 -164 -249 -274 -533 -334
-864 -27 -145 -37 -530 -20 -706 56 -560 243 -957 546 -1158 188 -124 392
-170 659 -146 309 28 547 127 730 301 209 199 316 459 346 841 19 232 -26 938
-76 1204 -74 399 -215 710 -408 901 -94 93 -187 151 -301 190 -98 33 -282 43
-380 20z"/>
<path d="M7476 6559 c-85 -11 -292 -58 -441 -99 -560 -153 -734 -182 -1030
-174 -174 4 -249 12 -630 61 -261 35 -298 37 -550 37 -258 1 -275 -1 -380 -26
-60 -14 -149 -40 -197 -58 -314 -114 -561 -404 -633 -743 -23 -106 -19 -297
10 -503 35 -240 40 -359 22 -459 -62 -338 -318 -570 -872 -788 -590 -232 -679
-272 -849 -386 -210 -139 -414 -372 -507 -576 -131 -289 -80 -599 168 -1020
162 -276 455 -592 748 -808 28 -20 55 -40 60 -45 16 -12 113 -74 195 -125 127
-78 378 -193 535 -246 396 -132 617 -121 890 44 70 42 180 117 210 143 37 31
233 156 290 185 199 99 390 112 609 40 89 -29 277 -123 406 -203 47 -29 99
-60 115 -70 17 -9 59 -34 94 -55 256 -151 492 -216 704 -194 170 17 323 72
562 199 517 276 643 318 925 307 169 -7 266 -25 506 -98 450 -136 557 -159
736 -159 194 0 308 34 468 139 128 84 329 304 475 521 97 144 369 598 422 705
159 317 161 572 6 763 -39 47 -129 113 -198 142 -56 24 -217 62 -405 95 -244
44 -384 101 -551 226 -229 172 -503 514 -593 738 -26 65 -30 92 -34 191 -4
123 8 191 78 445 66 242 83 355 84 550 1 165 -1 188 -26 281 -107 395 -410
763 -770 934 -152 71 -241 91 -428 95 -85 2 -186 -1 -224 -6z"/>
</g>
</svg>
