<svg width="32" height="36" viewBox="0 0 32 36" fill="none" xmlns="http://www.w3.org/2000/svg">
<g clip-path="url(#clip0_535_4)">
<path d="M9.69992 2C10.5999 2 11.4999 2.5 11.8999 3.4L13.4999 6.5C13.9999 7.4 13.7999 8.5 13.0999 9.3L10.9999 11.6C10.8999 11.6 10.8999 11.7 10.7999 11.8L9.49992 13L10.4999 14.4C12.7999 17.8 15.2999 20.9 18.0999 23.9L19.4999 25.4L20.9999 24L21.9999 23.1C22.4999 22.7 23.0999 22.4 23.6999 22.4C24.0999 22.4 24.4999 22.5 24.7999 22.7L27.8999 24.3C28.8999 24.8 29.3999 25.9 29.1999 27L27.9999 32.2C27.6999 33.3 26.7999 34.1 25.5999 34.1C25.2999 34.1 25.0999 34.1 24.7999 34C24.6999 34 24.5999 33.9 24.5999 33.9H24.4999C24.2999 33.8 23.9999 33.6 23.7999 33.4L23.6999 33.3L23.4999 33C10.5999 23.2 3.19992 8.6 2.29992 6.6V6.5C2.29992 6.5 2.29992 6.4 2.19992 6.4C1.79992 5.1 2.49992 3.7 3.79992 3.3C3.89992 3.3 3.89992 3.3 3.99992 3.2L9.19992 2C9.29992 2.1 9.49992 2 9.69992 2ZM9.69992 0C9.29992 0 8.99992 0 8.69992 0.1L3.49992 1.3C1.09992 1.8 -0.400076 4.2 0.0999238 6.6C0.0999238 6.8 0.199924 7 0.299924 7.1V7.2C0.599924 8 8.29992 24 22.1999 34.6C22.4999 34.9 22.8999 35.2 23.3999 35.4L23.4999 35.5C23.5999 35.6 23.7999 35.7 23.8999 35.7C26.1999 36.5 28.7999 35.3 29.5999 33C29.6999 32.8 29.6999 32.6 29.7999 32.5L30.9999 27.3C31.4999 25.3 30.4999 23.2 28.5999 22.3L25.4999 20.7C23.7999 19.9 21.7999 20.2 20.3999 21.4L19.3999 22.3C16.6999 19.4 14.2999 16.3 11.9999 13.1C12.0999 13 12.0999 13 12.1999 12.9L14.3999 10.6C15.6999 9.2 15.9999 7.2 15.0999 5.5L13.4999 2.4C12.8999 1 11.3999 0 9.69992 0Z" fill="black"/>
</g>
<defs>
<clipPath id="clip0_535_4">
<rect width="31.1" height="36" fill="white"/>
</clipPath>
</defs>
</svg>
