<svg width="50" height="51" viewBox="0 0 50 51" fill="none" xmlns="http://www.w3.org/2000/svg">
<path d="M38.9998 22.3C39.2998 20.7 39.0998 19 38.6998 17.4C38.1998 15.6 37.1998 13.9 35.7998 12.6C34.4998 11.3 32.7998 10.4 30.9998 10C29.8998 9.80005 28.7998 9.90005 27.7998 10.2" stroke="black" stroke-width="2.5" stroke-linecap="round" stroke-linejoin="round"/>
<path d="M46.8999 26.2C48.1999 22.3 48.1999 18.1 46.8999 14.3C45.9999 11.5 44.4999 8.9 42.3999 6.8C40.3999 4.6 37.9999 3 35.1999 2C31.9999 1 28.5999 1 25.3999 2" stroke="black" stroke-width="2.5" stroke-linecap="round" stroke-linejoin="round"/>
<path d="M14.0999 17.5C11.5999 20 12.2999 25.5 15.8999 30.2C19.4999 34.9 24.6999 37.1 27.6999 35.3" stroke="black" stroke-width="2.5" stroke-linecap="round" stroke-linejoin="round"/>
<path d="M35.9999 46C35.0999 46.8 34.1999 47.6 33.1999 48.2C28.9999 51.3 19.1999 45.4999 10.5999 34.2999C1.99989 23.0999 -1.00011 12.2 2.99989 8.89995C5.09989 7.19995 5.69989 6.79995 5.89989 6.69995" stroke="black" stroke-width="2.5" stroke-linecap="round" stroke-linejoin="round"/>
<path d="M36.8001 44.5001L28.9001 34.1001C28.4001 33.5001 28.6001 32.7001 29.2001 32.2001L32.8001 29.4001C33.4001 28.9001 34.2001 29.1001 34.7001 29.7001L42.6001 40.1001C43.1001 40.7001 42.9001 41.5001 42.3001 42.0001L38.7001 44.8001C38.1001 45.2001 37.3001 45.1001 36.8001 44.5001Z" stroke="black" stroke-width="2.5" stroke-linecap="round" stroke-linejoin="round"/>
<path d="M15.4999 16.7L7.59992 6.30004C7.09992 5.70004 7.19992 4.90004 7.79992 4.40004L11.3999 1.60004C11.9999 1.10004 12.7999 1.30004 13.2999 1.90004L21.1999 12.3C21.6999 12.9 21.4999 13.7 20.8999 14.2L17.2999 17C16.7999 17.4 15.9999 17.3 15.4999 16.7Z" stroke="black" stroke-width="2.5" stroke-linecap="round" stroke-linejoin="round"/>
</svg>
