<svg width="64" height="58" viewBox="0 0 64 58" fill="none" xmlns="http://www.w3.org/2000/svg">
<path d="M41.7 53.0009C41.5 51.8009 40.9 50.7009 40.1 49.9009C39.8 49.6009 39.6 49.2009 39.3 48.9009C39 48.6009 38.7 48.3009 38.3 47.9009C37.5 47.2009 36.7 46.5009 35.9 45.9009C35.5 45.6009 35 45.3009 34.5 44.9009C34 44.6009 33.5 44.3009 33 44.0009L32.2 43.6009C32.1 43.5009 31.9 43.5009 31.8 43.4009L31.4 43.2009C30.8 43.0009 30.3 42.8009 29.7 42.5009C27.3 41.7009 24.8 41.4009 22.3 41.6009C19.9 41.9009 17.6 42.6009 15.5 43.8009C15 44.1009 14.5 44.4009 14.1 44.7009L13.8 44.9009C13.7 45.0009 13.6 45.1009 13.5 45.2009L12.9 45.7009C12.5 46.1009 12.1 46.4009 11.7 46.8009C11.3 47.2009 11 47.6009 10.6 48.0009C10 48.7009 9.4 49.5009 8.9 50.4009C8.4 51.0009 8.2 51.4009 8 51.8009C7.8 52.2009 7.6 52.6009 7.5 52.9009C7 53.9009 6.8 55.1009 6.9 56.2009C7.1 57.0009 7.7 57.3009 8.7 57.2009C9 57.2009 9.2 57.1009 9.4 57.1009C9.7 57.0009 10 57.0009 10.3 56.9009C10.9 56.7009 11.6 56.5009 12.3 56.2009C12.7 56.1009 13.1 55.9009 13.5 55.8009C13.9 55.6009 14.3 55.5009 14.8 55.4009L15.5 55.2009C15.6 55.2009 15.7 55.1009 15.8 55.1009C15.9 55.1009 16 55.0009 16.2 55.0009C16.7 54.9009 17.2 54.7009 17.6 54.6009C19.7 54.0009 21.9 53.6009 24.1 53.4009C26.3 53.2009 28.6 53.2009 30.8 53.4009C31.3 53.5009 31.8 53.5009 32.3 53.5009H32.7L33.1 53.6009L33.8 53.7009C34.3 53.8009 34.7 53.8009 35.2 53.9009C35.7 54.0009 36 54.0009 36.4 54.0009C37.2 54.1009 37.9 54.2009 38.6 54.3009C38.9 54.3009 39.2 54.3009 39.5 54.3009C39.8 54.3009 40 54.3009 40.3 54.3009C41.2 54.2009 41.7 53.8009 41.7 53.0009Z" fill="black"/>
<path d="M50.2002 40.7009C50.6002 40.1009 50.3002 39.1009 49.5002 37.6009C49.3002 37.2009 49.1002 36.9009 48.8002 36.4009C48.5002 36.0009 48.2002 35.6009 47.9002 35.1009C47.1002 34.1009 46.3002 33.2009 45.4002 32.3009C44.9002 31.8009 44.4002 31.3009 43.9002 30.8009C43.4002 30.3009 42.8002 29.8009 42.2002 29.2009C41.0002 28.1009 39.7002 27.0009 38.3002 25.9009C35.3002 23.5009 32.1002 21.4009 28.7002 19.5009C25.4002 17.6009 22.0002 16.0009 18.5002 14.6009C16.9002 14.0009 15.3002 13.4009 13.9002 13.0009C13.2002 12.8009 12.5002 12.6009 11.8002 12.4009C11.1002 12.2009 10.5002 12.1009 9.80022 11.9009C8.70022 11.7009 7.50022 11.5009 6.30022 11.4009C5.80022 11.4009 5.30022 11.3009 4.90022 11.3009C4.50022 11.3009 4.00022 11.3009 3.70022 11.3009C2.00022 11.6009 1.10022 12.0009 1.00022 12.7009C0.700217 14.1009 3.40022 16.2009 7.70022 18.9009C8.20022 19.2009 8.80022 19.6009 9.40022 19.9009L11.3002 21.0009C12.6002 21.7009 14.0002 22.6009 15.4002 23.4009C18.3002 25.1009 21.4002 26.8009 24.7002 28.7009C28.0002 30.6009 31.1002 32.4009 34.0002 34.0009C35.4002 34.8009 36.8002 35.6009 38.1002 36.3009L40.0002 37.3009C40.6002 37.6009 41.2002 37.9009 41.8002 38.2009C46.3002 40.7009 49.4002 41.9009 50.2002 40.7009Z" fill="black"/>
<path d="M62.6004 27.201C63.3004 26.901 63.4004 26.401 63.1004 25.601C63.0004 25.401 62.9004 25.201 62.8004 25.001C62.7004 24.801 62.5004 24.501 62.4004 24.301C62.1004 23.801 61.6004 23.301 61.1004 22.701C60.9004 22.401 60.6004 22.101 60.3004 21.801L59.5004 20.801C58.9004 20.101 58.3004 19.401 57.6004 18.601C56.3004 17.001 54.9004 15.301 53.6004 13.501C52.3004 11.701 51.1004 9.90095 50.1004 8.30095C49.6004 7.50095 49.1004 6.70095 48.7004 6.00095L48.0004 5.00095C47.8004 4.70095 47.6004 4.30095 47.4004 4.00095C47.0004 3.40095 46.6004 2.80095 46.2004 2.30095C46.0004 2.10095 45.8004 1.80095 45.6004 1.60095C45.4004 1.40095 45.3004 1.20095 45.1004 1.00095C44.5004 0.400952 43.7004 0.100952 42.8004 0.100952C41.9004 0.300952 41.2004 0.900952 40.7004 1.70095C40.5004 1.90095 40.4004 2.20095 40.3004 2.40095C40.2004 2.70095 40.1004 3.00095 40.0004 3.30095C39.8004 4.00095 39.6004 4.60095 39.5004 5.30095C39.5004 5.70095 39.4004 6.10095 39.4004 6.50095C39.4004 6.90095 39.4004 7.30095 39.4004 7.70095C39.5004 8.60095 39.6004 9.50095 39.9004 10.401C40.5004 12.501 41.5004 14.401 42.8004 16.201C44.3004 18.101 46.0004 19.901 47.9004 21.401C48.9004 22.101 49.8004 22.801 50.9004 23.401C51.4004 23.701 51.9004 24.001 52.4004 24.301C52.9004 24.601 53.4004 24.801 53.9004 25.101C54.8004 25.501 55.8004 25.901 56.7004 26.301C57.1004 26.501 57.6004 26.601 58.0004 26.701C58.4004 26.801 58.8004 26.901 59.2004 27.001C60.3004 27.401 61.5004 27.401 62.6004 27.201Z" fill="black"/>
</svg>
