<svg width="86" height="85" viewBox="0 0 86 85" fill="none" xmlns="http://www.w3.org/2000/svg">
<path d="M41.2 38.1C41 38.1 40.7 38 40.5 37.8L33.8 31.1C33.4 30.7 33.4 30.2 33.8 29.8C34.2 29.4 34.7 29.4 35.1 29.8L41.8 36.5C42.2 36.9 42.2 37.4 41.8 37.8C41.6 38 41.4 38.1 41.2 38.1Z" fill="black"/>
<path d="M51.8999 35.4C51.6999 35.4 51.3999 35.3 51.1999 35.1L43.1999 27.1C42.7999 26.7 42.7999 26.2 43.1999 25.8C43.5999 25.4 44.0999 25.4 44.4999 25.8L52.4999 33.8C52.8999 34.2 52.8999 34.7 52.4999 35.1C52.3999 35.3 52.0999 35.4 51.8999 35.4Z" fill="black"/>
<path d="M39.8003 23.2999C39.6003 23.2999 39.3003 23.1999 39.1003 22.9999L35.1003 18.9999C34.7003 18.5999 34.7003 18.0999 35.1003 17.6999C35.5003 17.2999 36.0003 17.2999 36.4003 17.6999L40.4003 21.6999C40.8003 22.0999 40.8003 22.5999 40.4003 22.9999C40.3003 23.1999 40.0003 23.2999 39.8003 23.2999Z" fill="black"/>
<path d="M54.6002 24.5999C54.4002 24.5999 54.1002 24.4999 53.9002 24.2999L44.5002 14.9999C44.1002 14.5999 44.1002 14.0999 44.5002 13.6999C44.9002 13.2999 45.4002 13.2999 45.8002 13.6999L55.2002 23.0999C55.6002 23.4999 55.6002 23.9999 55.2002 24.3999C55.0002 24.5999 54.8002 24.5999 54.6002 24.5999Z" fill="black"/>
<path d="M65.3003 22.0001C65.1003 22.0001 64.8003 21.9001 64.6003 21.7001L56.6003 13.7001C56.2003 13.3001 56.2003 12.8001 56.6003 12.4001C57.0003 12.0001 57.5003 12.0001 57.9003 12.4001L65.9003 20.4001C66.3003 20.8001 66.3003 21.3001 65.9003 21.7001C65.8003 21.9001 65.5003 22.0001 65.3003 22.0001Z" fill="black"/>
<path d="M53.2002 9.9C53.0002 9.9 52.7002 9.8 52.5002 9.6L48.5002 5.6C48.1002 5.2 48.1002 4.7 48.5002 4.3C48.9002 3.9 49.4002 3.9 49.8002 4.3L53.8002 8.3C54.2002 8.7 54.2002 9.2 53.8002 9.6C53.7002 9.8 53.5002 9.9 53.2002 9.9Z" fill="black"/>
<path d="M68.0003 11.2001C67.8003 11.2001 67.5003 11.1001 67.3003 10.9001L60.6003 4.2001C60.2003 3.8001 60.2003 3.3001 60.6003 2.9001C61.0003 2.5001 61.5003 2.5001 61.9003 2.9001L68.6003 9.6001C69.0003 10.0001 69.0003 10.5001 68.6003 10.9001C68.5003 11.1001 68.2003 11.2001 68.0003 11.2001Z" fill="black"/>
<path d="M41.8002 46.2001C39.5002 46.2001 37.6002 45.6001 36.5002 44.5001C36.1002 44.1001 36.1002 43.6001 36.5002 43.2001C36.9002 42.8001 37.4002 42.8001 37.8002 43.2001C39.4002 44.8001 43.6002 44.8001 48.6002 43.1001C54.0002 41.3001 59.5002 37.9001 63.4002 33.9001C72.0002 25.3001 76.1002 11.7001 72.7002 8.2001C72.3002 7.8001 72.3002 7.3001 72.7002 6.9001C73.1002 6.5001 73.6002 6.5001 74.0002 6.9001C78.5002 11.5001 73.6002 26.3001 64.7002 35.2001C60.5002 39.4001 54.9002 42.9001 49.2002 44.8001C46.4002 45.8001 43.9002 46.2001 41.8002 46.2001Z" fill="black"/>
<path d="M7.70009 85C7.10009 85 6.60009 85 6.00009 84.9C2.90009 84.6 0.400094 82.1 0.100094 79C-0.499906 73.2 1.90009 67.5 6.50009 63.9L30.1001 45.9C29.2001 42.7 29.2001 39.3 30.0001 36C30.1001 35.5 30.6001 35.2 31.1001 35.3C31.6001 35.4 31.9001 35.9 31.8001 36.4C31.1001 39.5 31.2001 42.8 32.1001 45.9C32.2001 46.3 32.1001 46.7 31.8001 46.9L7.70009 65.4C3.60009 68.6 1.40009 73.6 2.00009 78.9C2.20009 81.1 4.00009 82.9 6.20009 83.1C11.4001 83.6 16.4001 81.5 19.7001 77.4L38.0001 53.2C38.2001 52.9 38.7001 52.8 39.0001 52.9C47.3001 55.7 60.0001 50.6 70.1001 40.6C76.2001 34.5 80.5001 27.4 82.3001 20.7C84.0001 14.1 83.2001 8.6 79.8001 5.3C77.0001 2.4 72.7001 1.3 67.5001 2.1C67.0001 2.2 66.5001 1.8 66.5001 1.3C66.4001 0.799999 66.8001 0.299999 67.3001 0.299999C73.0001 -0.600001 77.8001 0.699999 81.1001 3.9C84.9001 7.7 86.0001 13.9 84.1001 21.1C82.2001 28.2 77.7001 35.6 71.4001 41.9C61.0001 52.3 48.1001 57.4 39.1001 54.8L21.1001 78.4C17.8001 82.6 12.9001 85 7.70009 85Z" fill="black"/>
</svg>
