<svg width="85" height="85" viewBox="0 0 85 85" fill="none" xmlns="http://www.w3.org/2000/svg">
<path d="M49.2002 58.0999C45.8002 58.0999 42.5002 56.8 40.1002 54.4C37.6002 52 36.2002 48.7 36.2002 45.2C36.2002 36.6 38.8002 15.1 38.9002 14.2C39.0002 13.7 39.4002 13.3 39.9002 13.4C40.4002 13.5 40.8002 13.9 40.7002 14.4C40.7002 14.6 38.0002 36.6999 38.0002 45.0999C38.0002 48.0999 39.2002 50.9 41.3002 52.9C43.4002 55 46.2002 56.0999 49.2002 56.0999C55.2002 55.9999 60.2002 51.1 60.3002 45C60.3002 41.6 58.2002 38.3 55.7002 34.4C52.2002 29 48.3002 23 48.3002 14.1C48.3002 13.6 48.7002 13.2 49.2002 13.2C49.7002 13.2 50.1002 13.6 50.1002 14.1C50.1002 22.4 53.9002 28.2 57.2002 33.4C59.8002 37.5 62.1002 41 62.1002 45C62.0002 52 56.3002 57.8 49.2002 57.9C49.3002 58.1 49.2002 58.0999 49.2002 58.0999Z" fill="black"/>
<path d="M84.1001 28.7001H81.2001C78.2001 28.7001 75.1001 27 75.1001 23.8V20.2001C75.1001 19.7001 75.5001 19.3 76.0001 19.3C76.5001 19.3 76.9001 19.7001 76.9001 20.2001V23.8C76.9001 25.9 79.1001 26.9 81.2001 26.9H84.1001C84.6001 26.9 85.0001 27.3 85.0001 27.8C85.0001 28.3 84.6001 28.7001 84.1001 28.7001Z" fill="black"/>
<path d="M66.6001 43.4C66.1001 43.4 65.7001 43 65.7001 42.5C65.7001 42 66.1001 41.6 66.6001 41.6H69.3001C79.1001 41.4 83.1001 32.1 83.1001 28.3C83.1001 23.7 83.1001 20.6 72.0001 20.6H69.3001C68.8001 20.6 68.4001 20.2 68.4001 19.7C68.4001 10.9 61.2001 1.8 49.2001 1.8C35.6001 1.8 32.1001 15.3 31.3001 21.1L31.1001 22.4C31.0001 22.9 30.6001 23.3 30.1001 23.2C29.6001 23.1 29.2001 22.7 29.3001 22.2L29.5001 20.9C30.4001 14.6 34.1001 0 49.2001 0C61.9001 0 69.7001 9.4 70.2001 18.8H72.0001C84.1001 18.8 85.0001 22.6 85.0001 28.3C85.0001 33.6 79.8001 43.2 69.3001 43.4H66.6001Z" fill="black"/>
<path d="M62.5998 20.6001C62.0998 20.6001 61.6998 20.2001 61.6998 19.7001C61.6998 18.7001 60.8998 17.9001 59.8998 17.9001C58.8998 17.9001 58.0998 18.7001 58.0998 19.7001C58.0998 20.2001 57.6998 20.6001 57.1998 20.6001C56.6998 20.6001 56.2998 20.2001 56.2998 19.7001C56.2998 17.7001 57.8998 16.1001 59.8998 16.1001C61.8998 16.1001 63.4998 17.7001 63.4998 19.7001C63.4998 20.2001 63.0998 20.6001 62.5998 20.6001Z" fill="black"/>
<path d="M39.8 85H18.4C17.9 85 17.5 84.6 17.5 84.1V67.6H0.9C0.4 67.6 0 67.2 0 66.7V45.2001C0 44.7001 0.4 44.3 0.9 44.3H17.4V27.7001C17.4 27.2001 17.8 26.8 18.3 26.8H37.1C37.6 26.8 38 27.2001 38 27.7001C38 28.2001 37.6 28.6 37.1 28.6H19.3V45.1C19.3 45.6 18.9 46 18.4 46H1.8V65.6H18.3C18.8 65.6 19.2 66 19.2 66.5V83H38.8V66.6C38.8 66.1 39.2 65.7 39.7 65.7H56.2V61.3001C56.2 60.8001 56.6 60.4001 57.1 60.4001C57.6 60.4001 58 60.8001 58 61.3001V66.6C58 67.1 57.6 67.5 57.1 67.5H40.7V84C40.7 84.6 40.3 85 39.8 85Z" fill="black"/>
</svg>
