<svg width="85" height="86" viewBox="0 0 85 86" fill="none" xmlns="http://www.w3.org/2000/svg">
<path d="M42.4998 85.1002C18.5998 85.1002 1.59978 76.7002 0.0997773 64.2002C-0.00022269 63.1002 0.0997776 62.0002 0.299778 61.0002C0.799778 59.0002 1.89978 53.4002 3.09978 47.5002C4.49978 40.4002 6.09978 32.3002 6.99978 28.8002L7.09978 28.3002C7.49978 26.6002 7.99978 24.4002 11.1998 22.4002C11.5998 22.1002 12.0998 21.9002 12.5998 21.6002C13.0998 21.4002 13.5998 21.6002 13.7998 22.0002C13.9998 22.5002 13.7998 23.0002 13.3998 23.2002C12.9998 23.4002 12.5998 23.6002 12.1998 23.9002C9.69978 25.5002 9.29978 27.2002 8.89978 28.7002L8.79978 29.2002C7.89978 32.7002 6.29978 40.7002 4.89978 47.8002C3.69978 53.7002 2.59978 59.3002 2.09978 61.4002C1.89978 62.2002 1.79978 63.1002 1.89978 64.0002C3.19978 75.3002 19.8998 83.2002 42.4998 83.2002C65.0998 83.2002 81.6998 75.3002 83.0998 64.0002C83.1998 63.1002 83.0998 62.3002 82.8998 61.5002C82.3998 59.4002 81.2998 53.8002 80.0998 47.9002C78.6998 40.8002 77.0998 32.8002 76.1998 29.3002L76.0998 28.8002C75.7998 27.3002 75.3998 25.7002 72.9998 24.1002C72.5998 23.8002 72.4998 23.2002 72.6998 22.8002C72.9998 22.4002 73.5998 22.3002 73.9998 22.5002C76.9998 24.5002 77.4998 26.7002 77.8998 28.3002L77.9998 28.7002C78.8998 32.2002 80.4998 40.3002 81.8998 47.4002C83.0998 53.3002 84.1998 58.9002 84.6998 60.9002C84.9998 61.9002 84.9998 63.0002 84.8998 64.1002C83.3998 76.7002 66.3998 85.1002 42.4998 85.1002Z" fill="black"/>
<path d="M22.3997 23.4001C20.6997 23.4001 19.0997 22.7001 17.9997 21.6001C16.7997 20.4001 16.1997 18.8001 16.1997 17.2001C16.1997 13.7001 18.9997 10.9001 22.4997 10.9001C23.1997 10.9001 23.8997 11.0001 24.5997 11.3001C24.9997 10.1001 25.5997 9.1001 26.5997 8.3001C27.8997 7.2001 29.4997 6.7001 31.1997 6.9001C31.5997 6.9001 31.9997 7.0001 32.3997 7.1001C32.3997 6.9001 32.3997 6.6001 32.3997 6.4001C32.3997 2.9001 35.1997 0.100098 38.6997 0.100098C41.3997 0.100098 42.6997 1.9001 43.4997 3.4001C43.6997 3.8001 43.5997 4.4001 43.0997 4.7001C42.6997 4.9001 42.0997 4.8001 41.7997 4.3001C40.8997 2.6001 39.9997 2.0001 38.5997 2.0001C36.1997 2.0001 34.1997 4.0001 34.1997 6.4001C34.1997 7.1001 34.3997 7.9001 34.7997 8.5001C34.9997 8.9001 34.8997 9.4001 34.5997 9.7001C34.2997 10.0001 33.7997 10.0001 33.3997 9.7001C32.6997 9.1001 31.8997 8.8001 30.9997 8.7001C29.7997 8.6001 28.6997 8.9001 27.7997 9.7001C26.8997 10.4001 26.2997 11.5001 26.1997 12.7001C26.1997 13.0001 25.9997 13.3001 25.6997 13.4001C25.3997 13.5001 25.0997 13.5001 24.7997 13.4001C24.0997 13.0001 23.2997 12.8001 22.4997 12.8001C20.0997 12.8001 18.0997 14.8001 18.0997 17.2001C18.0997 18.4001 18.5997 19.5001 19.3997 20.3001C20.1997 21.1001 21.3997 21.6001 22.4997 21.6001C22.9997 21.6001 23.3997 22.0001 23.3997 22.5001C23.3997 23.0001 22.8997 23.4001 22.3997 23.4001Z" fill="black"/>
<path d="M62.5999 15.3C62.0999 15.3 61.6999 14.9 61.6999 14.4C61.6999 13.1 61.0999 11.8 60.0999 11C59.1999 10.2 57.9999 9.9 56.8999 10C55.6999 10.1 54.6999 10.7 53.8999 11.6C53.6999 11.9 53.2999 12 52.8999 11.9C52.4999 11.8 52.2999 11.5 52.1999 11.1C51.8999 8.9 49.9999 7.3 47.7999 7.3C47.2999 7.3 46.8999 6.9 46.8999 6.4C46.8999 5.9 47.2999 5.5 47.7999 5.5C50.3999 5.5 52.5999 7.1 53.5999 9.3C54.4999 8.7 55.4999 8.3 56.6999 8.2C58.3999 8 59.9999 8.5 61.2999 9.6C62.6999 10.8 63.5999 12.6 63.5999 14.4C63.4999 14.9 63.0999 15.3 62.5999 15.3Z" fill="black"/>
<path d="M62.6 26.0001C61.5 26.0001 60.4 25.7001 59.4 25.1001C59 24.8001 58.8 24.3001 59.1 23.8001C59.4 23.4001 59.9 23.2001 60.4 23.5001C61.1 23.9001 61.8 24.1001 62.6 24.1001C65 24.1001 67 22.1001 67 19.7001C67 17.3001 65 15.3001 62.6 15.3001C61.8 15.3001 61.1 15.5001 60.4 15.9001C60 16.2001 59.4 16.0001 59.1 15.6001C58.8 15.2001 59 14.6001 59.4 14.3001C60.4 13.7001 61.4 13.4001 62.5 13.4001C66 13.4001 68.8 16.2001 68.8 19.7001C68.9 23.2001 66.1 26.0001 62.6 26.0001Z" fill="black"/>
<path d="M50.5997 27.4001C50.0997 27.4001 49.6997 27.0001 49.6997 26.5001C49.6997 24.1001 47.6997 22.1001 45.2997 22.1001C43.9997 22.1001 42.6997 22.7001 41.8997 23.7001C41.6997 24.0001 41.2997 24.1001 40.8997 24.0001C40.4997 23.9001 40.2997 23.6001 40.1997 23.2001C39.8997 21.0001 37.9997 19.4001 35.7997 19.4001H33.0997C32.5997 19.4001 32.1997 19.0001 32.1997 18.5001C32.1997 18.0001 32.5997 17.6001 33.0997 17.6001H35.7997C38.3997 17.6001 40.5997 19.2001 41.5997 21.4001C42.5997 20.7001 43.8997 20.2001 45.1997 20.2001C48.6997 20.2001 51.4997 23.0001 51.4997 26.5001C51.4997 27.0001 51.0997 27.4001 50.5997 27.4001Z" fill="black"/>
<path d="M36.8996 52.9001C34.8996 52.9001 32.8996 51.2001 32.3996 48.8001C32.0996 47.4001 32.2996 45.9001 32.9996 44.8001C33.5996 43.9001 34.3996 43.3001 35.3996 43.1001C37.6996 42.7001 39.9996 44.5001 40.5996 47.1001C40.8996 48.6001 40.6996 50.0001 39.9996 51.1001C39.3996 52.0001 38.5996 52.6001 37.5996 52.8001C37.2996 52.8001 37.0996 52.9001 36.8996 52.9001ZM36.0996 44.8001C35.9996 44.8001 35.8996 44.8001 35.7996 44.8001C35.1996 44.9001 34.7996 45.3001 34.5996 45.7001C34.0996 46.4001 33.9996 47.4001 34.1996 48.3001C34.5996 50.0001 35.9996 51.2001 37.2996 50.9001C37.8996 50.8001 38.2996 50.4001 38.4996 50.0001C38.9996 49.3001 39.0996 48.3001 38.8996 47.4001C38.3996 46.0001 37.2996 44.8001 36.0996 44.8001Z" fill="black"/>
<path d="M29.5 62.2002C29 62.2002 28.6 62.1002 28.1 61.9002C27 61.3002 26.1 60.0002 25.7 58.5002C25 55.9002 25.9 53.2002 27.7 52.6002C28.4 52.3002 29.2 52.4002 30 52.8002C31.1 53.4002 32 54.7002 32.4 56.2002C33.1 58.8002 32.2 61.5002 30.4 62.1002C30.1 62.2002 29.8 62.2002 29.5 62.2002ZM28.7 54.2002C28.6 54.2002 28.5 54.2002 28.4 54.3002C27.6 54.6002 27 56.2002 27.5 58.0002C27.8 59.1002 28.3 59.9002 29 60.3002C29.3 60.4002 29.5 60.5002 29.8 60.4002C30.6 60.1002 31.2 58.5002 30.7 56.6002C30.4 55.5002 29.9 54.7002 29.2 54.3002C29 54.2002 28.8 54.2002 28.7 54.2002Z" fill="black"/>
<path d="M48.3998 77C47.5998 77 46.2998 76.7 44.8998 76.4C43.9998 76.2 42.8998 75.9 42.4998 75.9C42.0998 75.9 40.9998 76.2 40.0998 76.4C38.6998 76.7 37.3998 77 36.5998 77C33.3998 77 30.7998 74.2 30.7998 70.7C30.6998 68.9 31.2998 67.1 32.5998 65.7L37.6998 58.9C38.0998 58.3 38.6998 57.7 39.2998 57.3C40.5998 56.4 42.0998 56.1 43.6998 56.5C45.1998 56.8 46.4998 57.7 47.3998 59L52.4998 65.8C53.6998 67.1 54.2998 68.9 54.1998 70.7C54.1998 74.2 51.5998 77 48.3998 77ZM42.4998 74C42.9998 74 43.8998 74.2 45.2998 74.5C46.3998 74.8 47.7998 75.1 48.3998 75.1C50.5998 75.1 52.2998 73.1 52.2998 70.6C52.3998 69.2 51.8998 67.9 50.9998 66.9L45.7998 60C45.1998 59.1 44.2998 58.5 43.1998 58.3C42.1998 58.1 41.0998 58.3 40.1998 58.9C39.7998 59.2 39.3998 59.6 39.0998 60L33.9998 66.9C32.9998 68 32.5998 69.3 32.5998 70.6C32.5998 73.1 34.3998 75.1 36.4998 75.1C37.0998 75.1 38.3998 74.8 39.4998 74.5C41.0998 74.2 41.9998 74 42.4998 74Z" fill="black"/>
<path d="M48.2 52.9C48 52.9 47.7 52.9 47.5 52.8C46.5 52.6 45.7 52 45.1 51.1C44.4 50 44.1 48.5 44.5 47.1C45.1 44.4 47.4 42.6 49.7 43.1C50.7 43.3 51.5 43.9 52.1 44.8C52.8 45.9 53.1 47.4 52.7 48.8C52.1 51.2 50.2 52.9 48.2 52.9ZM46.2 47.5C46 48.5 46.1 49.4 46.6 50.1C46.8 50.4 47.2 50.8 47.8 51C49.1 51.2 50.5 50.1 50.9 48.4C51.1 47.4 51 46.5 50.5 45.8C50.3 45.5 49.9 45 49.3 44.9C48 44.6 46.6 45.8 46.2 47.5Z" fill="black"/>
<path d="M55.4999 62.2C55.1999 62.2 54.8999 62.1 54.5999 62C52.7999 61.3 51.8999 58.7 52.5999 56.1C52.9999 54.5 53.8999 53.2 54.9999 52.7C55.6999 52.3 56.4999 52.3 57.2999 52.5C59.0999 53.2 59.9999 55.8 59.2999 58.4C58.8999 60 57.9999 61.3 56.8999 61.8C56.3999 62.1 55.9999 62.2 55.4999 62.2ZM56.2999 54.2C56.0999 54.2 55.9999 54.2 55.7999 54.3C55.0999 54.6 54.5999 55.5 54.2999 56.6C53.7999 58.4 54.3999 60 55.1999 60.4C55.3999 60.5 55.6999 60.5 55.9999 60.3C56.6999 60 57.1999 59.1 57.4999 58C57.9999 56.2 57.3999 54.6 56.5999 54.3C56.4999 54.2 56.3999 54.2 56.2999 54.2Z" fill="black"/>
<path d="M70.7999 34.5C70.4999 34.5 70.0998 34.3 69.9998 34C69.7998 33.5 69.9998 33 70.3998 32.8C73.8998 31 75.8998 29.3 75.8998 27.9C75.8998 27.4 76.2999 27 76.7999 27C77.2999 27 77.6998 27.4 77.6998 27.9C77.6998 30.1 75.5998 32.3 71.1998 34.5C71.0998 34.5 70.8999 34.5 70.7999 34.5Z" fill="black"/>
<path d="M23.7999 37.6001C23.6999 37.6001 23.6999 37.6001 23.5999 37.6001C18.6999 36.6001 7.3999 33.5001 7.3999 27.8001C7.3999 27.3001 7.7999 26.9001 8.2999 26.9001C8.7999 26.9001 9.1999 27.3001 9.1999 27.8001C9.1999 30.7001 14.9999 33.9001 23.9999 35.8001C24.4999 35.9001 24.7999 36.4001 24.6999 36.9001C24.5999 37.3001 24.2999 37.6001 23.7999 37.6001Z" fill="black"/>
<path d="M42.4997 34.1002C27.0997 34.1002 16.8997 30.8002 13.7997 28.6002C13.3997 28.3002 13.2997 27.7002 13.5997 27.3002C13.8997 26.9002 14.4997 26.8002 14.8997 27.1002C17.6997 29.1002 27.5997 32.3002 42.4997 32.3002C57.3997 32.3002 67.3997 29.1002 70.0997 27.1002C70.4997 26.8002 71.0997 26.9002 71.3997 27.3002C71.6997 27.7002 71.5997 28.3002 71.1997 28.6002C68.0997 30.8002 57.8997 34.1002 42.4997 34.1002Z" fill="black"/>
</svg>
