<svg width="85" height="85" viewBox="0 0 85 85" fill="none" xmlns="http://www.w3.org/2000/svg">
<path d="M13 54.1999H0.9C0.4 54.1999 0 53.7999 0 53.2999V45.2999C0 44.7999 0.4 44.3999 0.9 44.3999H13C13.5 44.3999 13.9 44.7999 13.9 45.2999C13.9 45.7999 13.5 46.1999 13 46.1999H1.8V52.3999H13C13.5 52.3999 13.9 52.7999 13.9 53.2999C13.9 53.6999 13.5 54.1999 13 54.1999Z" fill="black"/>
<path d="M47.9 54.1999H37.0999C36.5999 54.1999 36.2 53.7999 36.2 53.2999C36.2 52.7999 36.5999 52.3999 37.0999 52.3999H47.7999C48.2999 52.3999 48.7 52.7999 48.7 53.2999C48.8 53.6999 48.4 54.1999 47.9 54.1999Z" fill="black"/>
<path d="M84.1001 54.1999H72.0001C71.5001 54.1999 71.1001 53.7999 71.1001 53.2999C71.1001 52.7999 71.5001 52.3999 72.0001 52.3999H83.1001V46.1999H72.0001C71.5001 46.1999 71.1001 45.7999 71.1001 45.2999C71.1001 44.7999 71.5001 44.3999 72.0001 44.3999H84.1001C84.6001 44.3999 85.0001 44.7999 85.0001 45.2999V53.2999C85.0001 53.6999 84.6001 54.1999 84.1001 54.1999Z" fill="black"/>
<path d="M47.9 46.1H37.0999C36.5999 46.1 36.2 45.7001 36.2 45.2001C36.2 44.7001 36.5999 44.3 37.0999 44.3H47.7999C48.2999 44.3 48.7 44.7001 48.7 45.2001C48.7 45.7001 48.4 46.1 47.9 46.1Z" fill="black"/>
<path d="M29.1004 56.8H21.0004C19.0004 56.8 17.4004 55.2001 17.4004 53.2001V45.2001C17.4004 44.7001 17.8004 44.3 18.3004 44.3H31.7004C32.2004 44.3 32.6004 44.7001 32.6004 45.2001V53.2001C32.7004 55.2001 31.1004 56.8 29.1004 56.8ZM19.3004 46.1V53.2001C19.3004 54.2001 20.1004 55 21.1004 55H29.1004C30.1004 55 30.9004 54.2001 30.9004 53.2001V46.1H19.3004Z" fill="black"/>
<path d="M64.0001 56.8H56.0001C54.0001 56.8 52.4001 55.2001 52.4001 53.2001V45.2001C52.4001 44.7001 52.8001 44.3 53.3001 44.3H66.7001C67.2001 44.3 67.6001 44.7001 67.6001 45.2001V53.2001C67.6001 55.2001 65.9001 56.8 64.0001 56.8ZM54.2001 46.1V53.2001C54.2001 54.2001 55.0001 55 56.0001 55H64.0001C65.0001 55 65.8001 54.2001 65.8001 53.2001V46.1H54.2001Z" fill="black"/>
<path d="M73.2 82.3001H10.5C7.3 82.3001 4.6 79.9 4.3 76.6L2 53.3C2 52.8 2.3 52.3 2.8 52.3C3.3 52.3 3.8 52.6 3.8 53.1L6 76.5C6.2 78.8 8.1 80.5 10.4 80.5H73.1C75.4 80.5 77.3 78.8 77.5 76.5L79.7 53.2001C79.7 52.7001 80.2 52.3001 80.7 52.4001C81.2 52.4001 81.6 52.9001 81.5 53.4001L79.3 76.7C79.1 79.9 76.4 82.3001 73.2 82.3001Z" fill="black"/>
<path d="M2.90018 46.0999C2.30018 46.0999 1.90018 45.5999 2.00018 45.0999L4.20018 19.0999C4.50018 15.8999 7.20018 13.3999 10.4002 13.3999H73.1002C76.3002 13.3999 79.0002 15.7999 79.3002 19.0999L81.5002 45.0999C81.5002 45.5999 81.2002 46.0999 80.7002 46.0999C80.2002 46.0999 79.7002 45.7999 79.7002 45.2999L77.5002 19.2999C77.3002 16.9999 75.4002 15.2999 73.1002 15.2999H10.5002C8.20018 15.2999 6.30018 16.9999 6.10018 19.2999L3.90018 45.2999C3.80018 45.6999 3.40018 46.0999 2.90018 46.0999Z" fill="black"/>
<path d="M18.4 85C17.9 85 17.5 84.6 17.5 84.1V81.4C17.5 80.9 17.9 80.5 18.4 80.5C18.9 80.5 19.3 80.9 19.3 81.4V84.1C19.3 84.6 18.9 85 18.4 85Z" fill="black"/>
<path d="M68.0001 85C67.5001 85 67.1001 84.6 67.1001 84.1V81.4C67.1001 80.9 67.5001 80.5 68.0001 80.5C68.5001 80.5 68.9001 80.9 68.9001 81.4V84.1C68.9001 84.6 68.5001 85 68.0001 85Z" fill="black"/>
<path d="M47.9002 38.1C47.4002 38.1 47.0002 37.7 47.0002 37.2V22.4C47.0002 21.9 47.4002 21.5 47.9002 21.5C48.4002 21.5 48.8002 21.9 48.8002 22.4V37.2C48.8002 37.6 48.4002 38.1 47.9002 38.1Z" fill="black"/>
<path d="M58.6002 38.1C58.1002 38.1 57.7002 37.7 57.7002 37.2V22.4C57.7002 21.9 58.1002 21.5 58.6002 21.5C59.1002 21.5 59.5002 21.9 59.5002 22.4V37.2C59.5002 37.6 59.1002 38.1 58.6002 38.1Z" fill="black"/>
<path d="M69.3001 38.1C68.8001 38.1 68.4001 37.7 68.4001 37.2V22.4C68.4001 21.9 68.8001 21.5 69.3001 21.5C69.8001 21.5 70.2001 21.9 70.2001 22.4V37.2C70.2001 37.6 69.8001 38.1 69.3001 38.1Z" fill="black"/>
<path d="M26.4 38.1C25.9 38.1 25.5 37.7 25.5 37.2V22.4C25.5 21.9 25.9 21.5 26.4 21.5C26.9 21.5 27.3 21.9 27.3 22.4V37.2C27.3 37.6 26.9 38.1 26.4 38.1Z" fill="black"/>
<path d="M37.1002 38.1C36.6002 38.1 36.2002 37.7 36.2002 37.2V22.4C36.2002 21.9 36.6002 21.5 37.1002 21.5C37.6002 21.5 38.0002 21.9 38.0002 22.4V37.2C38.1002 37.6 37.6002 38.1 37.1002 38.1Z" fill="black"/>
<path d="M15.7003 38.1C15.2003 38.1 14.8003 37.7 14.8003 37.2V22.4C14.8003 21.9 15.2003 21.5 15.7003 21.5C16.2003 21.5 16.6003 21.9 16.6003 22.4V37.2C16.6003 37.6 16.2003 38.1 15.7003 38.1Z" fill="black"/>
<path d="M58.6 15.3C58.1 15.3 57.7 14.9 57.7 14.4L57 5.5C56.6 3.5 54.4 1.9 52.1 1.9H32.9C30.6 1.9 28.4 3.5 28 5.5L27.4 14.4C27.4 14.9 26.9 15.3 26.4 15.3C25.9 15.3 25.5 14.8 25.5 14.3L26.2 5.3V5.2C26.7 2.3 29.7 0 32.9 0H52.1C55.3 0 58.3 2.3 58.8 5.2V5.3L59.5 14.3C59.6 14.8 59.2 15.2 58.6 15.3Z" fill="black"/>
<path d="M51.9002 9.8999C51.4002 9.8999 51.0002 9.4999 51.0002 8.9999V7.2999H34.0002V8.9999C34.0002 9.4999 33.6002 9.8999 33.1002 9.8999C32.6002 9.8999 32.2002 9.4999 32.2002 8.9999V6.2999C32.2002 5.7999 32.6002 5.3999 33.1002 5.3999H51.9002C52.4002 5.3999 52.8002 5.7999 52.8002 6.2999V8.9999C52.8002 9.4999 52.4002 9.8999 51.9002 9.8999Z" fill="black"/>
</svg>
