<svg width="86" height="86" viewBox="0 0 86 86" fill="none" xmlns="http://www.w3.org/2000/svg">
<path d="M60.0002 28.2999C59.5002 28.2999 59.2002 27.9999 59.1002 27.4999C58.9002 25.7999 59.4002 23.9999 60.7002 22.6999C61.9002 21.3999 63.7002 20.8999 65.5002 21.0999C66.0002 21.1999 66.4002 21.5999 66.3002 22.0999C66.2002 22.5999 65.8002 22.9999 65.3002 22.8999C64.1002 22.6999 62.9002 23.0999 62.1002 23.9999C61.3002 24.7999 60.9002 25.9999 61.0002 27.1999C61.1002 27.6999 60.7002 28.1999 60.2002 28.1999C60.1002 28.2999 60.0002 28.2999 60.0002 28.2999Z" fill="black"/>
<path d="M62.6001 37.7001C62.4001 37.7001 62.1001 37.6001 61.9001 37.4001C61.5001 37.0001 61.5001 36.5001 61.9001 36.1001L64.6001 33.4001C65.0001 33.0001 65.5001 33.0001 65.9001 33.4001C66.3001 33.8001 66.3001 34.3001 65.9001 34.7001L63.2001 37.4001C63.1001 37.6001 62.8001 37.7001 62.6001 37.7001Z" fill="black"/>
<path d="M69.5001 40.4C68.3001 40.4 67.2001 39.9 66.4001 39.1L63.4001 36.1C63.0001 35.7 63.0001 35.2 63.4001 34.8C63.8001 34.4 64.3001 34.4 64.7001 34.8L67.7001 37.8C68.2001 38.3 68.9001 38.6 69.6001 38.6C70.3001 38.6 71.0001 38.3 71.4001 37.8C72.2001 37 72.6001 35.9 72.4001 34.8C72.3001 34.3 72.7001 33.8 73.2001 33.7C73.7001 33.6 74.2001 34 74.3001 34.5C74.6001 36.2 74.0001 37.9 72.8001 39.1C71.9001 39.9 70.7001 40.4 69.5001 40.4Z" fill="black"/>
<path d="M42.4998 35.1C41.9998 35.1 41.5998 34.7 41.5998 34.2C41.4998 28.7 43.4998 23.4 47.2998 19.4C51.0998 15.4 56.2998 13.1 61.7998 13C62.0998 13 62.3998 13 62.6998 13C63.1998 13 63.5998 13.4 63.5998 13.9C63.5998 14.4 63.1998 14.8 62.6998 14.8C62.3998 14.8 62.1998 14.8 61.8998 14.8C51.4998 15 43.2998 23.7 43.4998 34.1C43.3998 34.7 42.9998 35.1 42.4998 35.1Z" fill="black"/>
<path d="M50.6 37.7001C50.1 37.7001 49.8 37.4001 49.7 36.9001C49.4 35.2001 50 33.4001 51.3 32.1001C52.6 30.9001 54.3 30.3001 56.1 30.5001C56.6 30.6001 57 31.0001 56.9 31.5001C56.8 32.0001 56.4 32.4001 55.9 32.3001C54.7 32.1001 53.5 32.5001 52.7 33.4001C51.9 34.2001 51.5 35.4001 51.6 36.6001C51.7 37.1001 51.3 37.6001 50.8 37.6001C50.7 37.7001 50.6 37.7001 50.6 37.7001Z" fill="black"/>
<path d="M63.8002 45.8C63.5002 45.8 63.3002 45.8 63.0002 45.7C62.5002 45.6 62.2002 45.2 62.2002 44.6C62.3002 44.1 62.7002 43.8 63.3002 43.8C64.4002 44 65.5002 43.6 66.3002 42.8C67.3002 41.8 67.4002 40.1 66.3002 39.1C65.9002 38.7 65.9002 38.1 66.3002 37.8C66.7002 37.4 67.2002 37.4 67.6002 37.8C69.4002 39.6 69.4002 42.4 67.6002 44.2C66.6002 45.2 65.2002 45.8 63.8002 45.8Z" fill="black"/>
<path d="M74.7002 53.1C74.4002 53.1 74.1002 53 73.9002 52.7C73.6002 52.3 73.7002 51.7 74.2002 51.4C79.7002 47.8 83.0002 41.8 83.2002 35.3C83.0002 30.3 80.2002 24.8 75.4002 20L59.5002 4.09999V14C59.5002 14.5 59.1002 14.9 58.6002 14.9C58.1002 14.9 57.7002 14.5 57.7002 14V1.89999C57.7002 1.49999 57.9002 1.19999 58.3002 0.999993C58.6002 0.899993 59.0002 0.899993 59.3002 1.19999L76.7002 18.6C81.6002 23.5 84.5002 29.1 85.0002 34.4C85.0002 34.5 85.1002 34.6 85.1002 34.7V35.4C85.1002 35.7 85.1002 36 85.1002 36.2C85.1002 36.3 85.1002 36.4 85.0002 36.5C84.4002 43.1 80.9002 49.1 75.3002 52.8C75.0002 53 74.9002 53.1 74.7002 53.1Z" fill="black"/>
<path d="M61.2999 56.5001C56.0999 56.5001 49.6998 50.7001 47.1998 48.2001L29.7998 30.7001C29.4998 30.4001 29.4998 30.0001 29.5998 29.7001C29.6998 29.4001 30.0998 29.1001 30.4998 29.1001H42.5998C43.0998 29.1001 43.4998 29.5001 43.4998 30.0001C43.4998 30.5001 43.0998 30.9001 42.5998 30.9001H32.7998L48.6998 46.8001C53.5998 51.7001 58.2998 54.6001 61.4998 54.6001C61.9998 54.6001 62.3998 55.0001 62.3998 55.5001C62.1998 56.1001 61.7999 56.5001 61.2999 56.5001Z" fill="black"/>
<path d="M42.5 85.9999C38.9 85.9999 35.3 84.9999 32 83.0999C20.1 75.4999 0 59.1999 0 35.3999V34.5999C0 22.2999 9.4 12.1999 21.3 11.6999C28.8 11.2999 36 14.7999 40.4 20.8999C40.7 21.2999 40.6 21.8999 40.2 22.1999C39.8 22.4999 39.2 22.3999 38.9 21.9999C34.8 16.3999 28.3 13.2999 21.4 13.5999C10.4 14.0999 1.8 23.2999 1.8 34.6999V35.4999C1.8 58.3999 21.3 74.1999 33 81.4999C38.8 84.9999 46.1 85.0999 51.9 81.4999C63.5 74.1999 83.1 58.4999 83.1 35.6999C83.1 35.1999 83.5 34.7999 84 34.7999C84.5 34.7999 84.9 35.1999 84.9 35.6999C84.9 59.4999 64.8 75.5999 52.9 83.0999C49.7 84.9999 46.1 85.9999 42.5 85.9999Z" fill="black"/>
<path d="M40.8002 76.6C38.8002 76.6 36.8002 76.2 34.9002 75.3C28.3002 72.4 22.5002 68.2 17.7002 62.8C17.4002 62.4 17.4002 61.8 17.8002 61.5C18.2002 61.2 18.8002 61.2 19.1002 61.6C23.7002 66.8 29.3002 70.8 35.6002 73.6C41.3002 76.1 47.9002 74.2 50.9002 69C51.9002 67.3 52.4002 65.4 52.4002 63.5C52.3002 59.8 54.6002 56.4 58.1002 55.1C59.1002 54.7 60.2002 54.5 61.3002 54.5C63.7002 54.5 65.9002 55.4 67.6002 57.1C69.3002 58.8 70.2002 61.1 70.3002 63.5C70.3002 67.3 68.7002 70.9 65.8002 73.4C65.4002 73.7 64.8002 73.7 64.5002 73.3C64.2002 72.9 64.2002 72.3 64.6002 72C67.1002 69.9 68.5002 66.8 68.5002 63.5C68.5002 61.6 67.7002 59.8 66.4002 58.4C65.0002 57.1 63.3002 56.3 61.4002 56.3C60.5002 56.3 59.7002 56.5 58.9002 56.8C56.1002 57.8 54.3002 60.5 54.4002 63.4C54.5002 65.7 53.9002 67.9 52.7002 69.9C50.0002 74.3 45.5002 76.6 40.8002 76.6Z" fill="black"/>
</svg>
