<svg width="85" height="85" viewBox="0 0 85 85" fill="none" xmlns="http://www.w3.org/2000/svg">
<path d="M33.5999 69.2999C33.2999 69.2999 32.8999 69.0999 32.7999 68.7999C31.5999 66.2999 30.8999 63.4999 30.8999 60.7999C30.8999 55.3999 33.8999 50.8999 37.3999 45.5999C41.8999 38.8999 46.9999 31.2999 46.9999 19.7999C46.9999 19.2999 47.3999 18.8999 47.8999 18.8999C48.3999 18.8999 48.7999 19.2999 48.7999 19.7999C48.7999 31.8999 43.5999 39.6999 38.8999 46.6999C35.5999 51.6999 32.6999 55.9999 32.6999 60.7999C32.6999 63.2999 33.2999 65.7999 34.3999 67.9999C34.5999 68.4999 34.3999 68.9999 33.9999 69.1999C33.8999 69.1999 33.6999 69.2999 33.5999 69.2999Z" fill="black"/>
<path d="M47.9002 78.1999C43.7002 78.1999 39.6002 76.5999 36.5002 73.6999C36.1002 73.3999 36.1002 72.8 36.5002 72.4C36.8002 72 37.4002 72 37.8002 72.4C40.6002 75 44.1002 76.4 47.9002 76.4C56.4002 76.3 63.2002 69.3 63.1002 60.8C63.1002 58.3 62.9002 54.9 62.5002 50.7C62.5002 50.2 62.8002 49.7 63.3002 49.7C63.8002 49.7 64.3002 50 64.3002 50.5C64.7002 54.8 64.9002 58.2 64.9002 60.8C65.0002 70.2 57.4002 78.0999 47.9002 78.1999Z" fill="black"/>
<path d="M62.4998 42.9C61.9998 42.9 61.5998 42.6 61.5998 42.1C60.4998 32.1 58.9998 22.6 58.9998 22.5C58.8998 22 59.2998 21.5 59.7998 21.5C60.2998 21.4 60.7998 21.8 60.7998 22.3C60.7998 22.4 62.2998 31.9 63.3998 42C63.4998 42.5 63.0998 43 62.5998 43C62.5998 42.9 62.5998 42.9 62.4998 42.9Z" fill="black"/>
<path d="M37.1002 27.3001C36.6002 27.3001 36.2002 26.9001 36.2002 26.4001C36.2002 24.7001 34.8002 23.3001 33.1002 23.3001C31.4002 23.3001 30.1002 24.7001 30.0002 26.4001C30.0002 26.9001 29.6002 27.3001 29.1002 27.3001C28.6002 27.3001 28.2002 26.9001 28.2002 26.4001C28.2002 23.7001 30.4002 21.6001 33.1002 21.5001C35.8002 21.4001 38.1002 23.6001 38.1002 26.4001C38.1002 26.9001 37.7002 27.3001 37.1002 27.3001Z" fill="black"/>
<path d="M4.9 39.3999H0.9C0.4 39.3999 0 38.9999 0 38.4999C0 37.9999 0.4 37.5999 0.9 37.5999H4.9C6.4 37.5999 7.9 36.9999 9 35.8999C10.1 34.7999 10.7 33.3999 10.7 31.7999V27.7999C10.7 27.2999 11.1 26.8999 11.6 26.8999C12.1 26.8999 12.5 27.2999 12.5 27.7999V31.7999C12.5 33.7999 11.7 35.7999 10.3 37.1999C8.9 38.5999 7 39.3999 4.9 39.3999Z" fill="black"/>
<path d="M26.4 58.2H21C7.2 57.9 0 44.7 0 37.6V37C0 33.9 0 31.1 2.1 28.9C4.5 26.5 9.1 25.5 17 25.5H20C20.5 12.8 30.8 0 47.6 0C66.4 0 72 18.1 73.6 25.9C73.7 26.4 73.4 26.9 72.9 27C72.4 27.1 71.9 26.8 71.8 26.3C70.3 18.9 65 1.8 47.6 1.8C31.5 1.8 21.8 14.3 21.8 26.4C21.8 26.6 21.7 26.9 21.5 27.1C21.3 27.3 21.1 27.4 20.8 27.4H16.9C9.6 27.4 5.3 28.3 3.3 30.3C1.7 31.9 1.7 34.2 1.7 37.1V37.7C1.7 43.9 8.5 56.1 20.9 56.4H26.2C26.7 56.4 27.1 56.8 27.1 57.3C27.3 57.8 26.9 58.2 26.4 58.2Z" fill="black"/>
<path d="M84.1001 55.5C83.8001 55.5 83.5001 55.3 83.3001 55C82.7001 54 82.1001 52.9 81.5001 51.8C78.6001 46.8 75.4001 41.1 73.5001 34.8C73.4001 34.3 73.6001 33.8 74.1001 33.7C74.6001 33.6 75.1001 33.8 75.2001 34.3C77.1001 40.4 80.2001 46 83.0001 51C83.6001 52.1 84.2001 53.1 84.8001 54.2C85.0001 54.6 84.9001 55.2 84.4001 55.5C84.4001 55.5 84.2001 55.5 84.1001 55.5Z" fill="black"/>
<path d="M13.2999 76.9C9.9999 76.9 7.3999 76 5.4999 74.1C2.0999 70.7 1.7999 64.8 4.5999 57C4.7999 56.5 5.2999 56.3 5.7999 56.4C6.2999 56.6 6.4999 57.1 6.3999 57.6C3.8999 64.6 4.0999 69.9 6.8999 72.7C10.0999 75.9 16.6999 75.6 25.0999 72C33.8999 68.2 43.5999 61.2 52.4999 52.2C61.3999 43.3 68.3999 33.5 72.2999 24.8C75.9999 16.4 76.1999 9.8 72.9999 6.6C71.5999 5.3 69.7999 4.5 67.8999 4.4C67.3999 4.4 66.9999 3.9 66.9999 3.4C66.9999 2.9 67.4999 2.5 67.9999 2.5C70.3999 2.6 72.5999 3.6 74.2999 5.2C78.0999 9 77.9999 16.2 73.9999 25.5C70.0999 34.5 62.8999 44.4 53.8999 53.5C44.7999 62.6 34.8999 69.7 25.8999 73.6C20.9999 75.9 16.7999 76.9 13.2999 76.9Z" fill="black"/>
<path d="M54.6 85.0001C54.5 85.0001 54.5 85.0001 54.4 85.0001L10.1 76.6001C9.60002 76.5001 9.30002 76.0001 9.40002 75.5001C9.50002 75.0001 10 74.7001 10.5 74.8001L54.7 83.1001C62.2 82.9001 69.3 79.9001 74.6 74.5001C80 69.2001 83 62.1001 83.2 54.5001L74.9 10.3001C74.8 9.80007 75.1 9.30007 75.6 9.20007C76.1 9.10007 76.6 9.40007 76.7 9.90007L85 54.4001C85 54.5001 85 54.5001 85 54.6001C84.9 62.7001 81.6 70.2001 75.9 75.9001C70.2 81.6001 62.7 84.9001 54.6 85.0001Z" fill="black"/>
</svg>
