<svg width="86" height="86" viewBox="0 0 86 86" fill="none" xmlns="http://www.w3.org/2000/svg">
<path d="M38.7 57.1001H5C2.3 57.1001 0 54.9001 0 52.1001C0 49.4001 2.2 47.1001 5 47.1001H38.7C39.2 47.1001 39.6 47.5001 39.6 48.0001C39.6 48.5001 39.2 48.9001 38.7 48.9001H5C3.3 48.9001 1.9 50.3001 1.9 52.0001C1.9 53.7001 3.3 55.1001 5 55.1001H38.7C39.2 55.1001 39.6 55.5001 39.6 56.0001C39.6 56.5001 39.2 57.1001 38.7 57.1001Z" fill="black"/>
<path d="M42.7002 82.7H22.5002C3.00019 82.7 2.7002 63.1001 2.7002 62.9001V56.2C2.7002 55.7 3.1002 55.3 3.6002 55.3C4.1002 55.3 4.5002 55.7 4.5002 56.2V62.9001C4.5002 63.6001 4.7002 80.8 22.4002 80.8H42.6002C43.1002 80.8 43.5002 81.2 43.5002 81.7C43.6002 82.3 43.2002 82.7 42.7002 82.7Z" fill="black"/>
<path d="M17.7998 85.1C17.5998 85.1 17.2998 85 17.0998 84.8C16.6998 84.4 16.6998 83.9 17.0998 83.5L18.7998 81.8C19.1998 81.4 19.6998 81.4 20.0998 81.8C20.4998 82.2 20.4998 82.7 20.0998 83.1L18.3998 84.8C18.2998 85 18.0998 85.1 17.7998 85.1Z" fill="black"/>
<path d="M80.4 57.1H79.1C78.6 57.1 78.2 56.7 78.2 56.2C78.2 55.7 78.6 55.3 79.1 55.3H80.4C82.1 55.3 83.5 53.9 83.5 52.2C83.5 50.5 82.1 49.1 80.4 49.1H76.4C75.9 49.1 75.5 48.7 75.5 48.2C75.5 47.7 75.9 47.3 76.4 47.3H80.4C83.1 47.3 85.4 49.5 85.4 52.3C85.4 54.9 83.1 57.1 80.4 57.1Z" fill="black"/>
<path d="M62.8998 82.6999H42.6998C42.1998 82.6999 41.7998 82.2999 41.7998 81.7999C41.7998 81.2999 42.1998 80.8999 42.6998 80.8999H62.8998C80.5998 80.8999 80.7998 63.6999 80.7998 62.9999V56.2999C80.7998 55.7999 81.1998 55.3999 81.6998 55.3999C82.1998 55.3999 82.5998 55.7999 82.5998 56.2999V62.9999C82.6998 63.0999 82.3998 82.6999 62.8998 82.6999Z" fill="black"/>
<path d="M67.5999 85.1001C67.3999 85.1001 67.0999 85.0001 66.8999 84.8001L65.1999 83.2001C64.7999 82.8001 64.7999 82.3001 65.1999 81.9001C65.5999 81.5001 66.0999 81.5001 66.4999 81.9001L68.1999 83.6001C68.5999 84.0001 68.5999 84.5001 68.1999 84.9001C67.9999 85.0001 67.7999 85.1001 67.5999 85.1001Z" fill="black"/>
<path d="M49.3999 24.8C47.3999 24.8 44.3999 21.8 44.3999 19.8C44.3999 17.8 45.9999 16.2 47.9999 16.2H50.6999C52.6999 16.2 54.2999 17.8 54.2999 19.8C54.3999 21.9 51.3999 24.8 49.3999 24.8ZM48.0999 18.1C47.0999 18.1 46.2999 18.9 46.2999 19.9C46.2999 20.9 48.3999 23 49.3999 23C50.3999 23 52.4999 20.9 52.4999 19.9C52.4999 18.9 51.6999 18.1 50.6999 18.1H48.0999Z" fill="black"/>
<path d="M42.7 30.2C38.5 30.2 35 27.4 35 23.9C35 23.4 35.4 23 35.9 23C36.4 23 36.8 23.4 36.8 23.9C36.8 26.4 39.4 28.4 42.6 28.4C45.8 28.4 48.4 26.4 48.4 23.9C48.4 23.4 48.8 23 49.3 23C49.8 23 50.2 23.4 50.2 23.9C50.4 27.4 46.9 30.2 42.7 30.2Z" fill="black"/>
<path d="M56.2 30.2C52 30.2 48.5 27.4 48.5 23.9C48.5 23.4 48.9 23 49.4 23C49.9 23 50.3 23.4 50.3 23.9C50.3 26.4 52.9 28.4 56.1 28.4C59.3 28.4 61.9 26.4 61.9 23.9C61.9 23.4 62.3 23 62.8 23C63.3 23 63.7 23.4 63.7 23.9C63.8 27.4 60.4 30.2 56.2 30.2Z" fill="black"/>
<path d="M49.4001 39.5999C45.9001 39.5999 43.1001 36.7999 43.1001 33.2999V29.2999C43.1001 28.7999 43.5001 28.3999 44.0001 28.3999C44.5001 28.3999 44.9001 28.7999 44.9001 29.2999V33.2999C44.9001 35.7999 46.9001 37.7999 49.4001 37.7999C51.9001 37.7999 53.9001 35.7999 53.9001 33.2999V29.2999C53.9001 28.7999 54.3001 28.3999 54.8001 28.3999C55.3001 28.3999 55.7001 28.7999 55.7001 29.2999V33.2999C55.7001 36.7999 52.9001 39.5999 49.4001 39.5999Z" fill="black"/>
<path d="M38.7002 11.4001C38.5002 11.4001 38.2002 11.3001 38.0002 11.1001C37.6002 10.7001 37.7002 10.1001 38.0002 9.8001C40.2002 7.7001 43.8002 7.7001 46.0002 9.8001C46.4002 10.2001 46.4002 10.7001 46.0002 11.1001C45.6002 11.5001 45.1002 11.5001 44.7002 11.1001C43.2002 9.6001 40.8002 9.6001 39.2002 11.1001C39.1002 11.3001 38.9002 11.4001 38.7002 11.4001Z" fill="black"/>
<path d="M60.2 11.4001C60 11.4001 59.7 11.3001 59.6 11.1001C58.1 9.6001 55.7 9.6001 54.1 11.1001C53.7 11.5001 53.1 11.4001 52.8 11.1001C52.4 10.7001 52.5 10.1001 52.8 9.8001C55 7.7001 58.6 7.7001 60.8 9.8001C61.2 10.2001 61.2 10.7001 60.8 11.1001C60.7 11.3001 60.4 11.4001 60.2 11.4001Z" fill="black"/>
<path d="M31.9002 15.4C31.7002 15.4 31.5002 15.3 31.3002 15.2L27.5002 12.3C27.5002 12.3 27.4002 12.3 27.4002 12.2C25.0002 9.9 24.9002 6.2 27.1002 3.8C27.2002 3.7 27.3002 3.6 27.4002 3.5C29.4002 1.3 31.5002 0 33.2002 0C35.2002 0 36.8002 1.6 36.8002 3.6C36.8002 4.1 36.4002 4.5 35.9002 4.5C35.4002 4.5 35.0002 4.1 35.0002 3.6C35.0002 2.6 34.2002 1.8 33.2002 1.8C32.4002 1.8 30.7002 2.6 28.7002 4.7C28.6002 4.8 28.5002 4.9 28.5002 4.9C27.0002 6.5 27.0002 9.1 28.6002 10.7L31.2002 12.7L32.2002 8.7C32.3002 8.2 32.8002 7.9 33.3002 8C33.8002 8.1 34.1002 8.6 34.0002 9.1L32.7002 14.5C32.6002 14.8 32.4002 15 32.1002 15.1C32.1002 15.4 32.0002 15.4 31.9002 15.4Z" fill="black"/>
<path d="M66.9 15.4001C66.8 15.4001 66.7 15.4001 66.6 15.3001C66.3 15.2001 66.1 15.0001 66 14.7001L64.7 9.3001C64.6 8.8001 64.9 8.3001 65.4 8.2001C65.9 8.1001 66.4 8.4001 66.5 8.9001L67.5 12.9001L70.1 10.9001C71.7 9.3001 71.8 6.8001 70.2 5.1001C70.2 5.1001 70.2 5.0001 70.1 4.9001C68.1 2.7001 66.4 1.9001 65.6 1.9001C64.6 1.9001 63.8 2.7001 63.8 3.7001C63.8 4.2001 63.4 4.6001 62.9 4.6001C62.4 4.6001 62 4.2001 62 3.7001C62 1.7001 63.6 0.100098 65.6 0.100098C67.3 0.100098 69.4 1.4001 71.4 3.7001C71.4 3.7001 71.5 3.8001 71.6 3.9001C73.9 6.3001 73.7 10.1001 71.3 12.3001C71.3 12.3001 71.2 12.3001 71.2 12.4001L67.4 15.3001C67.3 15.3001 67.1 15.4001 66.9 15.4001Z" fill="black"/>
<path d="M66.9002 63.9C62.7002 63.9 59.2002 60.5 59.2002 56.3V53.6C59.2002 53.1 59.6002 52.7 60.1002 52.7C60.6002 52.7 61.0002 53.1 61.0002 53.6V56.3C61.0002 59.5 63.6002 62.1 66.8002 62.1C68.3002 62.1 69.8002 61.5 70.9002 60.4C72.0002 59.3 72.6002 57.8 72.6002 56.3C72.6002 53.3 71.9002 52 70.9002 50.2C70.6002 49.7 70.3002 49.2 70.0002 48.6L69.7002 48C68.4002 45.4 67.5002 43.8 65.5002 43.8C63.0002 43.8 61.0002 45.8 61.0002 48.3C61.0002 48.8 60.6002 49.2 60.1002 49.2C59.6002 49.2 59.2002 48.8 59.2002 48.3C59.2002 44.8 62.0002 42 65.5002 42C68.8002 42 70.2002 44.8 71.4002 47.3L71.7002 47.9C72.0002 48.4 72.2002 48.9 72.5002 49.4C73.6002 51.3 74.5002 52.9 74.5002 56.4C74.5002 58.4 73.7002 60.4 72.3002 61.8C70.9002 63.1 69.0002 63.9 66.9002 63.9Z" fill="black"/>
<path d="M45.4002 63.9C41.2002 63.9 37.7002 60.5 37.7002 56.3V53.6C37.7002 53.1 38.1002 52.7 38.6002 52.7C39.1002 52.7 39.5002 53.1 39.5002 53.6V56.3C39.5002 59.5 42.1002 62.1 45.3002 62.1C46.8002 62.1 48.3002 61.5 49.4002 60.4C50.5002 59.3 51.1002 57.8 51.1002 56.3C51.1002 53.3 50.4002 52 49.4002 50.2C49.1002 49.7 48.8002 49.2 48.5002 48.6L48.2002 48C46.9002 45.4 46.0002 43.8 44.0002 43.8C41.5002 43.8 39.5002 45.8 39.5002 48.3C39.5002 48.8 39.1002 49.2 38.6002 49.2C38.1002 49.2 37.7002 48.8 37.7002 48.3C37.7002 44.8 40.5002 42 44.0002 42C47.3002 42 48.7002 44.8 49.9002 47.3L50.2002 47.9C50.5002 48.4 50.7002 48.9 51.0002 49.4C52.1002 51.3 53.0002 52.9 53.0002 56.4C53.0002 58.4 52.2002 60.4 50.8002 61.8C49.4002 63.1 47.4002 63.9 45.4002 63.9Z" fill="black"/>
<path d="M60.8999 48.6H54.2999C53.7999 48.6 53.3999 48.2 53.3999 47.7C53.3999 47.2 53.7999 46.8 54.2999 46.8H60.8999C61.3999 46.8 61.7999 47.2 61.7999 47.7C61.7999 48.2 61.3999 48.6 60.8999 48.6Z" fill="black"/>
<path d="M60.9002 56.9001H57.6002C57.1002 56.9001 56.7002 56.5001 56.7002 56.0001C56.7002 55.5001 57.1002 55.1001 57.6002 55.1001H60.9002C61.4002 55.1001 61.8002 55.5001 61.8002 56.0001C61.8002 56.5001 61.4002 56.9001 60.9002 56.9001Z" fill="black"/>
<path d="M60.1998 36.9001C59.7998 36.9001 59.4998 36.7001 59.2998 36.3001C59.0998 35.8001 59.2998 35.3001 59.7998 35.1001C63.0998 33.8001 65.3998 31.7001 66.5998 28.8001C69.1998 22.6001 66.0998 14.9001 65.9998 14.8001C65.7998 14.3001 65.9998 13.8001 66.4998 13.6001C66.9998 13.4001 67.4998 13.6001 67.6998 14.1001C67.7998 14.4001 71.1998 22.6001 68.2998 29.5001C66.8998 32.8001 64.2998 35.3001 60.4998 36.8001C60.3998 36.9001 60.2998 36.9001 60.1998 36.9001Z" fill="black"/>
<path d="M38.6998 36.9001C38.5998 36.9001 38.4998 36.9001 38.3998 36.8001C34.5998 35.3001 31.9998 32.8001 30.5998 29.5001C27.6998 22.6001 30.9998 14.4001 31.1998 14.1001C31.3998 13.6001 31.8998 13.4001 32.3998 13.6001C32.8998 13.8001 33.0998 14.3001 32.8998 14.8001C32.8998 14.9001 29.6998 22.6001 32.2998 28.8001C33.4998 31.7001 35.7998 33.8001 39.0998 35.1001C39.5998 35.3001 39.7998 35.8001 39.5998 36.3001C39.3998 36.7001 38.9998 36.9001 38.6998 36.9001Z" fill="black"/>
<path d="M65.5999 38.3C65.0999 38.3 64.6999 37.9 64.6999 37.4C64.5999 35.1 63.6999 34.4 63.6999 34.4C63.2999 34.1 63.1999 33.5 63.5999 33.1C63.8999 32.7 64.4999 32.6 64.8999 32.9C65.0999 33 66.4999 34.2 66.5999 37.3C66.4999 37.8 66.0999 38.3 65.5999 38.3Z" fill="black"/>
<path d="M13.1002 49.1001C12.5002 49.1001 12.2002 48.6001 12.2002 48.1001C12.2002 47.9001 12.4002 43.8001 18.0002 40.6001C26.9002 35.5001 29.3002 23.8001 29.3002 23.7001C29.4002 23.2001 29.9002 22.9001 30.4002 23.0001C30.9002 23.1001 31.2002 23.6001 31.1002 24.1001C31.0002 24.6001 28.6002 36.7001 18.9002 42.2001C14.2002 44.9001 14.0002 48.0001 14.0002 48.2001C14.0002 48.7001 13.6002 49.1001 13.1002 49.1001Z" fill="black"/>
<path d="M6.39993 49.0999C5.99993 49.0999 5.59993 48.7999 5.49993 48.3999C5.39993 48.0999 4.09993 41.0999 11.1999 35.3999C11.4999 35.1999 11.8999 35.0999 12.1999 35.2999C12.4999 35.4999 12.6999 35.8999 12.5999 36.1999C12.5999 36.2999 11.2999 43.9999 13.7999 47.6999C14.0999 48.0999 13.9999 48.6999 13.4999 48.9999C13.0999 49.2999 12.4999 49.1999 12.1999 48.6999C10.2999 45.7999 10.1999 41.2999 10.3999 38.3999C6.19993 42.9999 7.09992 47.8999 7.09992 47.9999C7.19992 48.4999 6.89993 48.9999 6.39993 49.0999Z" fill="black"/>
<path d="M7.1 28.8001C4.3 28.8001 2 26.5001 2 23.7001C2 20.9001 4.3 18.6001 7.1 18.6001C9.9 18.6001 12.2 20.9001 12.2 23.7001C12.1 26.5001 9.9 28.8001 7.1 28.8001ZM7.1 20.5001C5.3 20.5001 3.9 21.9001 3.9 23.7001C3.9 25.5001 5.3 26.9001 7.1 26.9001C8.9 26.9001 10.3 25.5001 10.3 23.7001C10.3 21.9001 8.9 20.5001 7.1 20.5001Z" fill="black"/>
<path d="M15.4 15.5C13.5 15.5 12 14 12 12.1C12 10.2 13.5 8.69995 15.4 8.69995C17.3 8.69995 18.8 10.2 18.8 12.1C18.8 14 17.2 15.5 15.4 15.5ZM15.4 10.5C14.5 10.5 13.8 11.2 13.8 12.1C13.8 13 14.5 13.7 15.4 13.7C16.3 13.7 17 13 17 12.1C16.9 11.2 16.2 10.5 15.4 10.5Z" fill="black"/>
<path d="M62.9001 4.6001C62.6001 4.6001 62.2001 4.4001 62.1001 4.1001C62.1001 4.0001 60.9001 1.9001 58.9001 1.9001H40.0001C37.9001 1.9001 36.8001 4.1001 36.8001 4.1001C36.6001 4.6001 36.0001 4.7001 35.6001 4.5001C35.1001 4.3001 35.0001 3.7001 35.2001 3.3001C35.3001 3.2001 36.8001 0.100098 40.1001 0.100098H58.9001C62.1001 0.100098 63.7001 3.2001 63.8001 3.3001C64.0001 3.8001 63.8001 4.3001 63.4001 4.5001C63.2001 4.6001 63.0001 4.6001 62.9001 4.6001Z" fill="black"/>
</svg>
