<svg width="76" height="74" viewBox="0 0 76 74" fill="none" xmlns="http://www.w3.org/2000/svg">
<path d="M40.7999 16.6999L35.2999 11.1999C33.5999 9.4999 31.3999 8.6999 28.9999 8.7999L26.7999 8.8999C24.8999 8.9999 22.9999 8.2999 21.6999 6.8999L16.1999 1.3999L1.3999 16.0999L7.4999 22.1999C8.5999 23.2999 9.3999 24.6999 9.8999 26.1999C10.4999 28.3999 11.6999 30.2999 13.2999 31.8999L15.2999 33.8999M36.4999 20.7999L32.0999 16.3999" stroke="black" stroke-width="2.5"/>
<path d="M21.6 7.8999L7.5 21.8999" stroke="black" stroke-width="2.5"/>
<path d="M53.5998 39.3999L54.4998 40.2999C55.9998 41.7999 58.3998 41.7999 59.8998 40.2999L64.2998 35.8999C65.9998 34.1999 66.7998 31.9999 66.6998 29.5999L66.5998 27.3999C66.4998 25.4999 67.1998 23.5999 68.4998 22.2999L73.9998 16.7999L59.3998 2.09985L53.2998 8.19985C52.1998 9.29985 50.7998 10.0999 49.2998 10.5999C47.0998 11.1999 45.1998 12.3999 43.5998 13.9999L18.7998 38.6999" stroke="black" stroke-width="2.5"/>
<path d="M67.6001 22.3998L53.6001 8.2998" stroke="black" stroke-width="2.5"/>
<path d="M35.1997 57.6998L39.5997 62.0998C41.2997 63.7998 43.4997 64.5998 45.8997 64.4998L48.0997 64.3998C49.9997 64.2998 51.8997 64.9998 53.1997 66.2998L58.6997 71.7998L73.3997 57.0998L67.3997 51.0998C66.2997 49.9998 65.4997 48.5998 64.9997 47.0998C64.3997 44.8998 63.1997 42.9998 61.5997 41.3998L60.4997 40.2998M38.9997 53.1998L42.5997 56.7998" stroke="black" stroke-width="2.5"/>
<path d="M53.1997 65.3998L67.1997 51.2998" stroke="black" stroke-width="2.5"/>
<path d="M46.1 45.8999C47.3 44.6999 47.3 42.7999 46.1 41.5999C44.9 40.3999 43 40.3999 41.8 41.5999L34.4 48.9999M23.1 33.3999L22.2 32.4999C20.7 30.9999 18.3 30.9999 16.8 32.4999L12.4 36.8999C10.7 38.5999 9.9 40.7999 10 43.1999L10.1 45.3999C10.2 47.2999 9.5 49.1999 8.2 50.4999L2.5 55.9999L17.2 70.6999L23.3 64.5999C24.4 63.4999 25.8 62.6999 27.3 62.1999C29.5 61.5999 31.4 60.3999 33 58.7999L58 33.9999M34 32.1999L36.4 29.7999C37.6 28.5999 37.6 26.6999 36.4 25.4999C35.3 24.3999 33.5 24.2999 32.3 25.2999" stroke="black" stroke-width="2.5"/>
<path d="M40.8999 33.7999L43.2999 31.3999C44.4999 30.1999 44.3999 28.2999 43.1999 27.0999C41.9999 25.9999 40.0999 25.9999 38.8999 27.0999L27.8999 38.1999" stroke="black" stroke-width="2.5"/>
<path d="M41.6998 41.7L45.9998 37.4C47.1998 36.2 47.1998 34.3 45.9998 33.1C44.7998 31.9 42.8998 31.9 41.6998 33.1L31.2998 43.4" stroke="black" stroke-width="2.5"/>
<path d="M9 50.5L23.1 64.5" stroke="black" stroke-width="2.5"/>
</svg>
