<svg width="63" height="77" viewBox="0 0 63 77" fill="none" xmlns="http://www.w3.org/2000/svg">
<g clip-path="url(#clip0_536_20)">
<path d="M25.3999 48.8C25.3999 50.1 25.1999 51.3 24.7999 52.5C24.1999 54.2 22.7999 55.5 20.9999 56L14.0999 57.7001C8.6999 59.1001 4.8999 63.9 4.8999 69.5V75.5H58.0999V69.5C58.0999 63.9 54.2999 59.0001 48.8999 57.7001L41.9999 56C40.1999 55.6 38.7999 54.3 38.1999 52.5C37.7999 51.3 37.5999 50 37.5999 48.8" stroke="black" stroke-width="2.5"/>
<path d="M40.7001 55.8L31.4001 69L22.1001 55.8" stroke="black" stroke-width="2.5"/>
<path d="M31.5 69.1001V74.9001" stroke="black" stroke-width="2.5"/>
<path d="M44.8002 31.2999C44.8002 31.2999 47.6002 15.8999 31.4002 15.8999C15.2002 15.8999 17.9002 31.2999 17.9002 31.2999" stroke="black" stroke-width="2.5"/>
<path d="M23.9002 29.4C22.3002 30.8 20.2002 31.6 18.0002 31.5C16.8002 31.5 15.7002 32.3999 15.4002 33.5999C15.3002 33.9999 15.3002 34.4 15.5002 34.9L16.3002 37.7C16.5002 38.5 17.2002 39.2 18.0002 39.4C18.7002 39.6 19.2002 40.1 19.5002 40.7C21.7002 46.3 26.2002 50.5999 31.3002 50.5999C36.4002 50.5999 40.8002 46.3999 43.0002 40.7999C43.3002 40.0999 43.9002 39.4999 44.6002 39.2999C45.4002 38.9999 46.0002 38.3999 46.2002 37.5999L47.0002 34.7999C47.1002 34.3999 47.2002 34 47.1002 33.5C46.8002 32.3 45.8002 31.4 44.5002 31.4C38.1002 31.4 31.9002 30.1 27.4002 24.7" stroke="black" stroke-width="2.5"/>
<path d="M31.5 9.2V0" stroke="black" stroke-width="2.5"/>
<path d="M47.1001 15.8L53.6001 9.30005" stroke="black" stroke-width="2.5"/>
<path d="M53.5 31.5H62.7" stroke="black" stroke-width="2.5"/>
<path d="M15.6001 15.8L9.1001 9.30005" stroke="black" stroke-width="2.5"/>
<path d="M9.2 31.5H0" stroke="black" stroke-width="2.5"/>
</g>
<defs>
<clipPath id="clip0_536_20">
<rect width="62.7" height="76.8" fill="white"/>
</clipPath>
</defs>
</svg>
