<svg width="40" height="72" viewBox="0 0 40 72" fill="none" xmlns="http://www.w3.org/2000/svg">
<path d="M32.7 71.4999H6.4C2.8 71.4999 0 68.5999 0 65.0999V34.3999C0 29.0999 2.6 24.1999 6.9 21.1999L8.2 23.0999C4.5 25.6999 2.3 29.8999 2.3 34.3999V65.0999C2.3 67.3999 4.1 69.1999 6.4 69.1999H32.7C35 69.1999 36.8 67.3999 36.8 65.0999V34.3999C36.8 26.7999 30.7 20.6999 23.1 20.6999H16C14.5 20.6999 13 20.8999 11.6 21.3999L10.8 19.1999C12.5 18.5999 14.2 18.3999 16 18.3999H23C31.9 18.3999 39 25.5999 39.1 34.4999V65.1999C39.1 68.5999 36.2 71.4999 32.7 71.4999Z" fill="black"/>
<path d="M19.5001 33.8C16.8001 33.8 14.6001 31.6 14.6001 28.9C14.6001 28.4 14.7001 27.9 14.8001 27.4L17.0001 28.1C16.6001 29.4 17.3001 30.9 18.7001 31.3C20.0001 31.7 21.5001 31 21.9001 29.6C22.3001 28.3 21.6001 26.8 20.2001 26.4C20.0001 26.3 19.7001 26.3 19.4001 26.3V24C22.1001 24 24.3001 26.1 24.4001 28.8C24.4001 31.5 22.3001 33.7 19.6001 33.8C19.6001 33.8 19.6001 33.8 19.5001 33.8Z" fill="black"/>
<path d="M14.2999 66.4001C12.1999 66.4001 10.3999 64.9001 9.99992 62.9001C7.59992 62.4001 6.09992 60.0001 6.59992 57.6001C7.09992 55.2001 9.49992 53.7001 11.8999 54.2001C12.2999 54.3001 12.6999 54.4001 13.0999 54.6001L20.8999 46.8001C19.6999 44.6001 20.4999 42.0001 22.6999 40.8001C24.8999 39.6001 27.4999 40.4001 28.6999 42.6001C28.8999 43.0001 28.9999 43.4001 29.0999 43.8001C31.4999 44.3001 32.9999 46.7001 32.4999 49.1001C31.9999 51.5001 29.5999 53.0001 27.1999 52.5001C26.7999 52.4001 26.3999 52.3001 25.9999 52.1001L18.1999 59.9001C19.3999 62.1001 18.5999 64.7001 16.3999 65.9001C15.7999 66.2001 15.0999 66.4001 14.2999 66.4001ZM11.0999 60.6001C11.7999 60.6001 12.2999 61.1001 12.2999 61.8001C12.2999 61.8001 12.2999 61.8001 12.2999 61.9001C12.2999 62.5001 12.4999 63.1001 12.8999 63.5001C13.6999 64.3001 14.9999 64.3001 15.7999 63.5001C16.5999 62.7001 16.5999 61.4001 15.7999 60.6001C15.3999 60.1001 15.3999 59.4001 15.7999 59.0001L24.9999 49.8001C25.3999 49.4001 26.1999 49.3001 26.5999 49.8001C27.3999 50.6001 28.7999 50.5001 29.4999 49.7001C30.2999 48.9001 30.2999 47.6001 29.4999 46.8001C29.0999 46.4001 28.4999 46.2001 27.8999 46.2001C27.2999 46.2001 26.6999 45.7001 26.6999 45.1001V45.0001C26.6999 44.4001 26.4999 43.8001 26.0999 43.4001C25.2999 42.6001 23.9999 42.6001 23.1999 43.4001C22.3999 44.2001 22.3999 45.5001 23.1999 46.3001C23.5999 46.8001 23.5999 47.5001 23.1999 47.9001L13.9999 57.0001C13.4999 57.4001 12.7999 57.5001 12.3999 57.0001C11.5999 56.2001 10.2999 56.2001 9.49992 57.1001C8.69992 57.9001 8.69992 59.2001 9.59992 60.0001C9.89992 60.4001 10.4999 60.6001 11.0999 60.6001Z" fill="black"/>
<path d="M19.4999 30.1C13.8999 30.1 9.3999 23.5 9.3999 15.3C9.3999 7.1 13.8999 0.5 19.4999 0.5C25.0999 0.5 29.5999 7.1 29.5999 15.3C29.5999 16.1 29.5999 16.9 29.4999 17.7L27.1999 17.4C27.2999 16.7 27.2999 16 27.2999 15.3C27.2999 8.5 23.7999 2.9 19.4999 2.9C15.1999 2.9 11.6999 8.5 11.6999 15.3C11.6999 22.1 15.1999 27.7 19.4999 27.7V30.1Z" fill="black"/>
</svg>
