<svg width="69" height="66" viewBox="0 0 69 66" fill="none" xmlns="http://www.w3.org/2000/svg">
<path d="M61.9002 65.8999C58.5002 65.8999 55.7002 63.3999 55.2002 60.0999H40.9002C40.4002 63.7999 37.0002 66.3999 33.4002 65.8999C29.7002 65.3999 27.1002 61.9999 27.6002 58.3999C27.8002 57.1999 28.3002 55.9999 29.1002 54.9999C26.8002 52.0999 27.2001 47.8999 30.1001 45.4999C33.0001 43.1999 37.2001 43.5999 39.6001 46.4999C40.4001 47.4999 40.9001 48.5999 41.1001 49.8999H55.5002C56.0002 46.1999 59.4001 43.5999 63.0001 44.0999C66.7001 44.5999 69.3002 47.9999 68.8002 51.5999C68.6002 52.7999 68.1002 53.9999 67.3002 54.9999C69.6002 57.8999 69.2002 62.0999 66.3002 64.4999C65.0002 65.2999 63.5002 65.8999 61.9002 65.8999ZM39.7002 57.5999H56.5002C57.2002 57.5999 57.7002 58.1999 57.7002 58.7999C57.7002 58.7999 57.7002 58.7999 57.7002 58.8999V58.9999C57.7002 59.0999 57.7002 59.0999 57.7002 59.1999C57.7002 61.5999 59.6001 63.4999 62.0001 63.4999C64.4001 63.4999 66.3002 61.5999 66.3002 59.1999C66.3002 57.8999 65.7001 56.6999 64.7001 55.8999C64.2001 55.4999 64.1001 54.6999 64.5001 54.1999C64.5001 54.0999 64.6001 54.0999 64.7001 53.9999C66.5001 52.4999 66.8002 49.7999 65.3002 47.9999C63.8002 46.1999 61.1001 45.8999 59.3001 47.3999C58.3001 48.1999 57.7002 49.3999 57.7002 50.6999C57.7002 50.7999 57.7002 50.7999 57.7002 50.8999V50.9999C57.7002 51.6999 57.2002 52.2999 56.5002 52.2999C56.5002 52.2999 56.5002 52.2999 56.4002 52.2999H39.7002C39.0002 52.2999 38.5001 51.6999 38.5001 51.0999C38.5001 51.0999 38.5001 51.0999 38.5001 50.9999V50.8999C38.5001 50.7999 38.5001 50.7999 38.5001 50.6999C38.5001 48.2999 36.6002 46.3999 34.2002 46.3999C31.8002 46.3999 29.9001 48.2999 29.9001 50.6999C29.9001 51.9999 30.5001 53.1999 31.5001 53.9999C32.0001 54.3999 32.1002 55.1999 31.7002 55.6999C31.7002 55.7999 31.6001 55.7999 31.5001 55.8999C29.7002 57.3999 29.4002 60.0999 30.9002 61.8999C32.4002 63.6999 35.1002 63.9999 36.9002 62.4999C37.9002 61.6999 38.5001 60.4999 38.5001 59.1999C38.5001 59.0999 38.5001 59.0999 38.5001 58.9999V58.8999C38.4001 58.1999 39.0002 57.5999 39.7002 57.5999Z" fill="black"/>
<path d="M11 31.7H8.5V64.5H11V31.7Z" fill="black"/>
<path d="M57 31.7H54.5V43.4H57V31.7Z" fill="black"/>
<path d="M64.3 34.1C64 34.1 63.8 34 63.6 33.9L32.7 11.2L1.9 33.9C1.4 34.3 0.6 34.2 0.2 33.6C4.47035e-08 33.4 0 33.1 0 32.8L0.3 25C0.3 24.6 0.5 24.3 0.8 24.1L32 1.1C32.4 0.8 33 0.8 33.5 1.1L64.7 24.1C65 24.3 65.2 24.7 65.2 25L65.5 32.8C65.6 33.5 65 34.1 64.3 34.1ZM32.7 8.5C33 8.5 33.2 8.6 33.4 8.7L63 30.4L62.8 25.7L32.8 3.6L2.8 25.7L2.6 30.4L32 8.7C32.2 8.6 32.5 8.5 32.7 8.5Z" fill="black"/>
<path d="M25.9002 65.7999H18.9002C18.2002 65.7999 17.7002 65.1999 17.7002 64.5999V43.3999C17.7002 38.0999 22.0002 33.8999 27.2002 33.8999H38.2002C43.5002 33.8999 47.7002 38.1999 47.7002 43.3999V47.7999H45.2002V43.3999C45.2002 39.4999 42.0002 36.2999 38.1002 36.2999H27.1002C23.2002 36.2999 20.0002 39.4999 20.0002 43.3999V63.2999H25.8002V65.7999H25.9002Z" fill="black"/>
</svg>
