<svg width="70" height="69" viewBox="0 0 70 69" fill="none" xmlns="http://www.w3.org/2000/svg">
<path d="M28.4999 56.4002C28.1999 56.4002 27.7999 56.3002 27.5999 56.0002L12.8999 41.3002C12.3999 40.8002 12.3999 40.0002 12.8999 39.5002L46.6999 5.7002C47.1999 5.2002 47.9999 5.2002 48.4999 5.7002L63.1999 20.4002C63.6999 20.9002 63.6999 21.7002 63.1999 22.2002L29.3999 56.0002C29.1999 56.3002 28.8999 56.4002 28.4999 56.4002ZM15.5999 40.4002L28.4999 53.3002L60.4999 21.3002L47.5999 8.4002L15.5999 40.4002Z" fill="black"/>
<path d="M61.6588 5.58751L54.1636 13.0828L56.002 14.9212L63.4973 7.42597L61.6588 5.58751Z" fill="black"/>
<path d="M57.8458 -0.00130335L56.0073 1.83716L67.2502 13.08L69.0887 11.2416L57.8458 -0.00130335Z" fill="black"/>
<path d="M27.9151 44.0793L26.0767 45.9177L31.9456 51.7867L33.784 49.9482L27.9151 44.0793Z" fill="black"/>
<path d="M34.879 37.069L33.0405 38.9075L38.9095 44.7764L40.7479 42.9379L34.879 37.069Z" fill="black"/>
<path d="M41.8438 30.0539L40.0054 31.8923L45.8743 37.7613L47.7128 35.9228L41.8438 30.0539Z" fill="black"/>
<path d="M48.8067 23.1769L46.9683 25.0154L52.8372 30.8843L54.6757 29.0459L48.8067 23.1769Z" fill="black"/>
<path d="M22.4997 57.3002C21.3997 57.3002 20.3997 56.9002 19.5997 56.2002L12.6997 49.3002C10.9997 47.6002 11.1997 44.6002 13.1997 42.6002L14.5997 41.2002L16.3997 43.0002L14.9997 44.4002C13.9997 45.4002 13.7997 46.8002 14.4997 47.5002L21.3997 54.4002C22.0997 55.1002 23.4997 54.9002 24.4997 53.9002L25.8997 52.5002L27.6997 54.3002L26.2997 55.7002C25.2997 56.7002 23.9997 57.3002 22.4997 57.3002Z" fill="black"/>
<path d="M16.1646 50.9917L0.961914 66.1943L2.80037 68.0328L18.003 52.8301L16.1646 50.9917Z" fill="black"/>
</svg>
